<svg xmlns="http://www.w3.org/2000/svg" width="1200" height="584" viewBox="0 0 1200 584" role="img" aria-labelledby="t d" fill="none">
<title id="t">ENGINEERING PIPELINE</title><desc id="d">Seven stage flow: data, process, model, retrieval, reasoning, API, deployment.</desc>
<defs><pattern id="dots" width="7" height="7" patternUnits="userSpaceOnUse"><circle cx="3.5" cy="3.5" r="1.45" fill="#000"/></pattern>
<pattern id="dotsW" width="7" height="7" patternUnits="userSpaceOnUse"><circle cx="3.5" cy="3.5" r="1.45" fill="#fff"/></pattern>
<pattern id="hatch" width="6" height="6" patternUnits="userSpaceOnUse" patternTransform="rotate(45)"><line x1="0" y1="0" x2="0" y2="6" stroke="#000" stroke-width="1.3"/></pattern>
<pattern id="hatchW" width="6" height="6" patternUnits="userSpaceOnUse" patternTransform="rotate(45)"><line x1="0" y1="0" x2="0" y2="6" stroke="#fff" stroke-width="1.3"/></pattern>
<pattern id="gridK" width="24" height="24" patternUnits="userSpaceOnUse"><path d="M24 0H0V24" stroke="#e2e2e2" stroke-width=".8"/></pattern>
<pattern id="gridW" width="24" height="24" patternUnits="userSpaceOnUse"><path d="M24 0H0V24" stroke="#2a2a2a" stroke-width=".8"/></pattern>
<linearGradient id="fadeH" x1="0" y1="0" x2="1" y2="0"><stop offset="0" stop-color="#fff"/><stop offset="1" stop-color="#000"/></linearGradient>
<linearGradient id="fadeV" x1="0" y1="0" x2="0" y2="1"><stop offset="0" stop-color="#fff"/><stop offset="1" stop-color="#000"/></linearGradient>
<radialGradient id="fadeR"><stop offset="0" stop-color="#fff"/><stop offset="1" stop-color="#000"/></radialGradient>
<mask id="mH"><rect width="100%" height="100%" fill="url(#fadeH)"/></mask>
<mask id="mV"><rect width="100%" height="100%" fill="url(#fadeV)"/></mask>
<mask id="mR" maskContentUnits="objectBoundingBox"><rect width="1" height="1" fill="url(#fadeR)"/></mask>
<marker id="ahK" viewBox="0 0 10 10" refX="9" refY="5" markerWidth="8" markerHeight="8" orient="auto"><path d="M0 0L10 5L0 10Z" fill="#000"/></marker>
<marker id="ahW" viewBox="0 0 10 10" refX="9" refY="5" markerWidth="8" markerHeight="8" orient="auto"><path d="M0 0L10 5L0 10Z" fill="#fff"/></marker></defs>
<rect x="0" y="0" width="1200" height="584" fill="#fff" /><polygon points="0,6 606,6 576,78 0,78" fill="#000"/><text x="26" y="58" font-family="Impact,'Haettenschweiler','Arial Narrow Bold','Franklin Gothic Condensed','Arial Black',sans-serif" font-size="54" font-weight="400" fill="#666" text-anchor="start" letter-spacing="0" textLength="53" lengthAdjust="spacingAndGlyphs" >02</text><text x="100" y="58" font-family="Impact,'Haettenschweiler','Arial Narrow Bold','Franklin Gothic Condensed','Arial Black',sans-serif" font-size="50" font-weight="400" fill="#fff" text-anchor="start" letter-spacing="0" textLength="460" lengthAdjust="spacingAndGlyphs" >ENGINEERING PIPELINE</text><line x1="626" y1="42" x2="1196" y2="42" stroke="#000" stroke-width="2" /><line x1="646" y1="34" x2="646" y2="50" stroke="#000" stroke-width="1.6"><animate attributeName="y1" values="34;24;34" dur="3.2s" begin="0.0s" repeatCount="indefinite" /><animate attributeName="y2" values="50;60;50" dur="3.2s" begin="0.0s" repeatCount="indefinite" /></line><line x1="686" y1="34" x2="686" y2="50" stroke="#000" stroke-width="1.6"><animate attributeName="y1" values="34;24;34" dur="3.2s" begin="0.09s" repeatCount="indefinite" /><animate attributeName="y2" values="50;60;50" dur="3.2s" begin="0.09s" repeatCount="indefinite" /></line><line x1="726" y1="34" x2="726" y2="50" stroke="#000" stroke-width="1.6"><animate attributeName="y1" values="34;24;34" dur="3.2s" begin="0.18s" repeatCount="indefinite" /><animate attributeName="y2" values="50;60;50" dur="3.2s" begin="0.18s" repeatCount="indefinite" /></line><line x1="766" y1="34" x2="766" y2="50" stroke="#000" stroke-width="1.6"><animate attributeName="y1" values="34;24;34" dur="3.2s" begin="0.27s" repeatCount="indefinite" /><animate attributeName="y2" values="50;60;50" dur="3.2s" begin="0.27s" repeatCount="indefinite" /></line><line x1="806" y1="34" x2="806" y2="50" stroke="#000" stroke-width="1.6"><animate attributeName="y1" values="34;24;34" dur="3.2s" begin="0.36s" repeatCount="indefinite" /><animate attributeName="y2" values="50;60;50" dur="3.2s" begin="0.36s" repeatCount="indefinite" /></line><line x1="846" y1="34" x2="846" y2="50" stroke="#000" stroke-width="1.6"><animate attributeName="y1" values="34;24;34" dur="3.2s" begin="0.44999999999999996s" repeatCount="indefinite" /><animate attributeName="y2" values="50;60;50" dur="3.2s" begin="0.44999999999999996s" repeatCount="indefinite" /></line><line x1="886" y1="34" x2="886" y2="50" stroke="#000" stroke-width="1.6"><animate attributeName="y1" values="34;24;34" dur="3.2s" begin="0.54s" repeatCount="indefinite" /><animate attributeName="y2" values="50;60;50" dur="3.2s" begin="0.54s" repeatCount="indefinite" /></line><line x1="926" y1="34" x2="926" y2="50" stroke="#000" stroke-width="1.6"><animate attributeName="y1" values="34;24;34" dur="3.2s" begin="0.63s" repeatCount="indefinite" /><animate attributeName="y2" values="50;60;50" dur="3.2s" begin="0.63s" repeatCount="indefinite" /></line><line x1="966" y1="34" x2="966" y2="50" stroke="#000" stroke-width="1.6"><animate attributeName="y1" values="34;24;34" dur="3.2s" begin="0.72s" repeatCount="indefinite" /><animate attributeName="y2" values="50;60;50" dur="3.2s" begin="0.72s" repeatCount="indefinite" /></line><line x1="1006" y1="34" x2="1006" y2="50" stroke="#000" stroke-width="1.6"><animate attributeName="y1" values="34;24;34" dur="3.2s" begin="0.8099999999999999s" repeatCount="indefinite" /><animate attributeName="y2" values="50;60;50" dur="3.2s" begin="0.8099999999999999s" repeatCount="indefinite" /></line><line x1="1046" y1="34" x2="1046" y2="50" stroke="#000" stroke-width="1.6"><animate attributeName="y1" values="34;24;34" dur="3.2s" begin="0.8999999999999999s" repeatCount="indefinite" /><animate attributeName="y2" values="50;60;50" dur="3.2s" begin="0.8999999999999999s" repeatCount="indefinite" /></line><line x1="1086" y1="34" x2="1086" y2="50" stroke="#000" stroke-width="1.6"><animate attributeName="y1" values="34;24;34" dur="3.2s" begin="0.99s" repeatCount="indefinite" /><animate attributeName="y2" values="50;60;50" dur="3.2s" begin="0.99s" repeatCount="indefinite" /></line><line x1="1126" y1="34" x2="1126" y2="50" stroke="#000" stroke-width="1.6"><animate attributeName="y1" values="34;24;34" dur="3.2s" begin="1.08s" repeatCount="indefinite" /><animate attributeName="y2" values="50;60;50" dur="3.2s" begin="1.08s" repeatCount="indefinite" /></line><line x1="1166" y1="34" x2="1166" y2="50" stroke="#000" stroke-width="1.6"><animate attributeName="y1" values="34;24;34" dur="3.2s" begin="1.17s" repeatCount="indefinite" /><animate attributeName="y2" values="50;60;50" dur="3.2s" begin="1.17s" repeatCount="indefinite" /></line><polygon points="-7,22 7,22 0,36" fill="#000"><animateTransform attributeName="transform" type="translate" values="636 0;1160 0;636 0" dur="7s" repeatCount="indefinite"/></polygon><rect x="894" y="12" width="282" height="22" fill="#fff" /><text x="1172" y="28" font-family="'SF Mono',Menlo,Consolas,'Liberation Mono','Courier New',monospace" font-size="11" font-weight="400" fill="#000" text-anchor="end" letter-spacing="2" >SEC. 02 / METHOD</text><rect x="1180" y="16" width="8" height="14" fill="#000"><animate attributeName="opacity" values="1;0;1" dur="1.1s" begin="0s" repeatCount="indefinite" /></rect><clipPath id="hs"><rect x="616" y="62" width="579" height="12"/></clipPath><g clip-path="url(#hs)"><g><animateTransform attributeName="transform" type="translate" values="0 0;12 0" dur="1.2s" begin="0s" repeatCount="indefinite" /><line x1="592" y1="74" x2="604" y2="62" stroke="#000" stroke-width="1.4"/><line x1="604" y1="74" x2="616" y2="62" stroke="#000" stroke-width="1.4"/><line x1="616" y1="74" x2="628" y2="62" stroke="#000" stroke-width="1.4"/><line x1="628" y1="74" x2="640" y2="62" stroke="#000" stroke-width="1.4"/><line x1="640" y1="74" x2="652" y2="62" stroke="#000" stroke-width="1.4"/><line x1="652" y1="74" x2="664" y2="62" stroke="#000" stroke-width="1.4"/><line x1="664" y1="74" x2="676" y2="62" stroke="#000" stroke-width="1.4"/><line x1="676" y1="74" x2="688" y2="62" stroke="#000" stroke-width="1.4"/><line x1="688" y1="74" x2="700" y2="62" stroke="#000" stroke-width="1.4"/><line x1="700" y1="74" x2="712" y2="62" stroke="#000" stroke-width="1.4"/><line x1="712" y1="74" x2="724" y2="62" stroke="#000" stroke-width="1.4"/><line x1="724" y1="74" x2="736" y2="62" stroke="#000" stroke-width="1.4"/><line x1="736" y1="74" x2="748" y2="62" stroke="#000" stroke-width="1.4"/><line x1="748" y1="74" x2="760" y2="62" stroke="#000" stroke-width="1.4"/><line x1="760" y1="74" x2="772" y2="62" stroke="#000" stroke-width="1.4"/><line x1="772" y1="74" x2="784" y2="62" stroke="#000" stroke-width="1.4"/><line x1="784" y1="74" x2="796" y2="62" stroke="#000" stroke-width="1.4"/><line x1="796" y1="74" x2="808" y2="62" stroke="#000" stroke-width="1.4"/><line x1="808" y1="74" x2="820" y2="62" stroke="#000" stroke-width="1.4"/><line x1="820" y1="74" x2="832" y2="62" stroke="#000" stroke-width="1.4"/><line x1="832" y1="74" x2="844" y2="62" stroke="#000" stroke-width="1.4"/><line x1="844" y1="74" x2="856" y2="62" stroke="#000" stroke-width="1.4"/><line x1="856" y1="74" x2="868" y2="62" stroke="#000" stroke-width="1.4"/><line x1="868" y1="74" x2="880" y2="62" stroke="#000" stroke-width="1.4"/><line x1="880" y1="74" x2="892" y2="62" stroke="#000" stroke-width="1.4"/><line x1="892" y1="74" x2="904" y2="62" stroke="#000" stroke-width="1.4"/><line x1="904" y1="74" x2="916" y2="62" stroke="#000" stroke-width="1.4"/><line x1="916" y1="74" x2="928" y2="62" stroke="#000" stroke-width="1.4"/><line x1="928" y1="74" x2="940" y2="62" stroke="#000" stroke-width="1.4"/><line x1="940" y1="74" x2="952" y2="62" stroke="#000" stroke-width="1.4"/><line x1="952" y1="74" x2="964" y2="62" stroke="#000" stroke-width="1.4"/><line x1="964" y1="74" x2="976" y2="62" stroke="#000" stroke-width="1.4"/><line x1="976" y1="74" x2="988" y2="62" stroke="#000" stroke-width="1.4"/><line x1="988" y1="74" x2="1000" y2="62" stroke="#000" stroke-width="1.4"/><line x1="1000" y1="74" x2="1012" y2="62" stroke="#000" stroke-width="1.4"/><line x1="1012" y1="74" x2="1024" y2="62" stroke="#000" stroke-width="1.4"/><line x1="1024" y1="74" x2="1036" y2="62" stroke="#000" stroke-width="1.4"/><line x1="1036" y1="74" x2="1048" y2="62" stroke="#000" stroke-width="1.4"/><line x1="1048" y1="74" x2="1060" y2="62" stroke="#000" stroke-width="1.4"/><line x1="1060" y1="74" x2="1072" y2="62" stroke="#000" stroke-width="1.4"/><line x1="1072" y1="74" x2="1084" y2="62" stroke="#000" stroke-width="1.4"/><line x1="1084" y1="74" x2="1096" y2="62" stroke="#000" stroke-width="1.4"/><line x1="1096" y1="74" x2="1108" y2="62" stroke="#000" stroke-width="1.4"/><line x1="1108" y1="74" x2="1120" y2="62" stroke="#000" stroke-width="1.4"/><line x1="1120" y1="74" x2="1132" y2="62" stroke="#000" stroke-width="1.4"/><line x1="1132" y1="74" x2="1144" y2="62" stroke="#000" stroke-width="1.4"/><line x1="1144" y1="74" x2="1156" y2="62" stroke="#000" stroke-width="1.4"/><line x1="1156" y1="74" x2="1168" y2="62" stroke="#000" stroke-width="1.4"/><line x1="1168" y1="74" x2="1180" y2="62" stroke="#000" stroke-width="1.4"/><line x1="1180" y1="74" x2="1192" y2="62" stroke="#000" stroke-width="1.4"/><line x1="1192" y1="74" x2="1204" y2="62" stroke="#000" stroke-width="1.4"/></g></g><rect x="0" y="82" width="1200" height="4" fill="#000" /><g transform="translate(0 84)"><rect x="0" y="0" width="1200" height="500" fill="#fff" /><rect x="0" y="0" width="1200" height="500" rx="0" fill="url(#gridK)" stroke="none" stroke-width="0" /><rect x="36" y="256" width="140" height="150" rx="0" fill="#000" stroke="#000" stroke-width="0" /><rect x="30" y="250" width="140" height="150" rx="0" fill="#fff" stroke="#000" stroke-width="3" /><text x="40" y="270" font-family="'SF Mono',Menlo,Consolas,'Liberation Mono','Courier New',monospace" font-size="10" font-weight="400" fill="#000" text-anchor="start" letter-spacing="2" >STAGE 01</text><ellipse cx="100" cy="300" rx="22" ry="8" fill="#fff" stroke="#000" stroke-width="2.5"/><path d="M78 300V330A22 8 0 0 0 122 330V300" stroke="#000" stroke-width="2.5"/><path d="M78 315A22 8 0 0 0 122 315" stroke="#000" stroke-width="2"/><ellipse cx="100" cy="300" rx="22" ry="8" fill="#000" opacity="0"><animate attributeName="opacity" values="0;.5;0" dur="2.4s" begin="0s" repeatCount="indefinite" /></ellipse><text x="100.0" y="366" font-family="Impact,'Haettenschweiler','Arial Narrow Bold','Franklin Gothic Condensed','Arial Black',sans-serif" font-size="22" font-weight="400" fill="#000" text-anchor="middle" letter-spacing="1" textLength="47" lengthAdjust="spacingAndGlyphs">DATA</text><text x="100.0" y="386" font-family="'SF Mono',Menlo,Consolas,'Liberation Mono','Courier New',monospace" font-size="9.5" font-weight="400" fill="#000" text-anchor="middle" letter-spacing="0" textLength="114" lengthAdjust="spacingAndGlyphs">Pandas · NumPy · SQL</text><rect x="30" y="250" width="140" height="150" fill="#000" opacity="0"><animate attributeName="opacity" values="0;0.26;0;0" keyTimes="0;.05;.2;1" dur="7.0s" begin="0.0s" repeatCount="indefinite"/></rect><line x1="100.0" y1="408" x2="100.0" y2="440" stroke="#000" stroke-width="1" stroke-dasharray="2 4"/><rect x="96.0" y="436" width="8" height="8" fill="#000" opacity="0"><animate attributeName="opacity" values="0;1;0;0" keyTimes="0;.05;.2;1" dur="7s" begin="0s" repeatCount="indefinite"/></rect><rect x="204" y="228" width="140" height="150" rx="0" fill="#000" stroke="#000" stroke-width="0" /><rect x="198" y="222" width="140" height="150" rx="0" fill="#fff" stroke="#000" stroke-width="3" /><text x="208" y="242" font-family="'SF Mono',Menlo,Consolas,'Liberation Mono','Courier New',monospace" font-size="10" font-weight="400" fill="#000" text-anchor="start" letter-spacing="2" >STAGE 02</text><g><animateTransform attributeName="transform" type="rotate" from="0 268 288" to="360 268 288" dur="7s" repeatCount="indefinite"/><circle cx="268" cy="288" r="14" fill="#fff" stroke="#000" stroke-width="3" /><circle cx="268" cy="288" r="5" fill="#000" stroke="#000" stroke-width="1" /><rect x="264" y="264" width="8" height="9" fill="#000" transform="rotate(0 268 288)"/><rect x="264" y="264" width="8" height="9" fill="#000" transform="rotate(60 268 288)"/><rect x="264" y="264" width="8" height="9" fill="#000" transform="rotate(120 268 288)"/><rect x="264" y="264" width="8" height="9" fill="#000" transform="rotate(180 268 288)"/><rect x="264" y="264" width="8" height="9" fill="#000" transform="rotate(240 268 288)"/><rect x="264" y="264" width="8" height="9" fill="#000" transform="rotate(300 268 288)"/></g><text x="268.0" y="338" font-family="Impact,'Haettenschweiler','Arial Narrow Bold','Franklin Gothic Condensed','Arial Black',sans-serif" font-size="22" font-weight="400" fill="#000" text-anchor="middle" letter-spacing="1" textLength="82" lengthAdjust="spacingAndGlyphs">PROCESS</text><text x="268.0" y="358" font-family="'SF Mono',Menlo,Consolas,'Liberation Mono','Courier New',monospace" font-size="9.5" font-weight="400" fill="#000" text-anchor="middle" letter-spacing="0" textLength="97" lengthAdjust="spacingAndGlyphs">clean · transform</text><rect x="198" y="222" width="140" height="150" fill="#000" opacity="0"><animate attributeName="opacity" values="0;0.26;0;0" keyTimes="0;.05;.2;1" dur="7.0s" begin="1.0s" repeatCount="indefinite"/></rect><line x1="268.0" y1="380" x2="268.0" y2="440" stroke="#000" stroke-width="1" stroke-dasharray="2 4"/><rect x="264.0" y="436" width="8" height="8" fill="#000" opacity="0"><animate attributeName="opacity" values="0;1;0;0" keyTimes="0;.05;.2;1" dur="7s" begin="1s" repeatCount="indefinite"/></rect><rect x="372" y="200" width="140" height="150" rx="0" fill="#000" stroke="#000" stroke-width="0" /><rect x="366" y="194" width="140" height="150" rx="0" fill="#000" stroke="#000" stroke-width="3" /><text x="376" y="214" font-family="'SF Mono',Menlo,Consolas,'Liberation Mono','Courier New',monospace" font-size="10" font-weight="400" fill="#fff" text-anchor="start" letter-spacing="2" >STAGE 03</text><line x1="414" y1="246" x2="436" y2="240" stroke="#fff" stroke-width="1.2" /><line x1="414" y1="246" x2="436" y2="260" stroke="#fff" stroke-width="1.2" /><line x1="414" y1="246" x2="436" y2="280" stroke="#fff" stroke-width="1.2" /><line x1="414" y1="274" x2="436" y2="240" stroke="#fff" stroke-width="1.2" /><line x1="414" y1="274" x2="436" y2="260" stroke="#fff" stroke-width="1.2" /><line x1="414" y1="274" x2="436" y2="280" stroke="#fff" stroke-width="1.2" /><line x1="436" y1="240" x2="458" y2="252" stroke="#fff" stroke-width="1.2" /><line x1="436" y1="240" x2="458" y2="268" stroke="#fff" stroke-width="1.2" /><line x1="436" y1="260" x2="458" y2="252" stroke="#fff" stroke-width="1.2" /><line x1="436" y1="260" x2="458" y2="268" stroke="#fff" stroke-width="1.2" /><line x1="436" y1="280" x2="458" y2="252" stroke="#fff" stroke-width="1.2" /><line x1="436" y1="280" x2="458" y2="268" stroke="#fff" stroke-width="1.2" /><circle cx="414" cy="246" r="4.5" fill="#000" stroke="#fff" stroke-width="2"><animate attributeName="r" values="4.5;7;4.5" dur="1.8s" begin="0.0s" repeatCount="indefinite" /></circle><circle cx="414" cy="274" r="4.5" fill="#000" stroke="#fff" stroke-width="2"><animate attributeName="r" values="4.5;7;4.5" dur="1.8s" begin="0.22s" repeatCount="indefinite" /></circle><circle cx="436" cy="240" r="4.5" fill="#000" stroke="#fff" stroke-width="2"><animate attributeName="r" values="4.5;7;4.5" dur="1.8s" begin="0.44s" repeatCount="indefinite" /></circle><circle cx="436" cy="260" r="4.5" fill="#000" stroke="#fff" stroke-width="2"><animate attributeName="r" values="4.5;7;4.5" dur="1.8s" begin="0.66s" repeatCount="indefinite" /></circle><circle cx="436" cy="280" r="4.5" fill="#000" stroke="#fff" stroke-width="2"><animate attributeName="r" values="4.5;7;4.5" dur="1.8s" begin="0.88s" repeatCount="indefinite" /></circle><circle cx="458" cy="252" r="4.5" fill="#000" stroke="#fff" stroke-width="2"><animate attributeName="r" values="4.5;7;4.5" dur="1.8s" begin="1.1s" repeatCount="indefinite" /></circle><circle cx="458" cy="268" r="4.5" fill="#000" stroke="#fff" stroke-width="2"><animate attributeName="r" values="4.5;7;4.5" dur="1.8s" begin="1.32s" repeatCount="indefinite" /></circle><text x="436.0" y="310" font-family="Impact,'Haettenschweiler','Arial Narrow Bold','Franklin Gothic Condensed','Arial Black',sans-serif" font-size="22" font-weight="400" fill="#fff" text-anchor="middle" letter-spacing="1" textLength="59" lengthAdjust="spacingAndGlyphs">MODEL</text><text x="436.0" y="330" font-family="'SF Mono',Menlo,Consolas,'Liberation Mono','Courier New',monospace" font-size="9.5" font-weight="400" fill="#fff" text-anchor="middle" letter-spacing="0" textLength="103" lengthAdjust="spacingAndGlyphs">ML · DL · CV · NLP</text><rect x="366" y="194" width="140" height="150" fill="#fff" opacity="0"><animate attributeName="opacity" values="0;0.26;0;0" keyTimes="0;.05;.2;1" dur="7.0s" begin="2.0s" repeatCount="indefinite"/></rect><line x1="436.0" y1="352" x2="436.0" y2="440" stroke="#000" stroke-width="1" stroke-dasharray="2 4"/><rect x="432.0" y="436" width="8" height="8" fill="#000" opacity="0"><animate attributeName="opacity" values="0;1;0;0" keyTimes="0;.05;.2;1" dur="7s" begin="2s" repeatCount="indefinite"/></rect><rect x="540" y="172" width="140" height="150" rx="0" fill="#000" stroke="#000" stroke-width="0" /><rect x="534" y="166" width="140" height="150" rx="0" fill="#fff" stroke="#000" stroke-width="3" /><text x="544" y="186" font-family="'SF Mono',Menlo,Consolas,'Liberation Mono','Courier New',monospace" font-size="10" font-weight="400" fill="#000" text-anchor="start" letter-spacing="2" >STAGE 04</text><g><animateTransform attributeName="transform" type="translate" values="-6 -2;6 2;-6 -2" dur="2.6s" begin="0s" repeatCount="indefinite" /><circle cx="600" cy="228" r="15" fill="#fff" stroke="#000" stroke-width="3" /><line x1="611" y1="239" x2="626" y2="254" stroke="#000" stroke-width="5" /><line x1="592" y1="228" x2="608" y2="228" stroke="#000" stroke-width="2" /><line x1="592" y1="235" x2="606" y2="235" stroke="#000" stroke-width="2" /></g><text x="604.0" y="282" font-family="Impact,'Haettenschweiler','Arial Narrow Bold','Franklin Gothic Condensed','Arial Black',sans-serif" font-size="22" font-weight="400" fill="#000" text-anchor="middle" letter-spacing="1" textLength="106" lengthAdjust="spacingAndGlyphs">RETRIEVAL</text><text x="604.0" y="302" font-family="'SF Mono',Menlo,Consolas,'Liberation Mono','Courier New',monospace" font-size="9.5" font-weight="400" fill="#000" text-anchor="middle" letter-spacing="0" textLength="118" lengthAdjust="spacingAndGlyphs">RAG · GraphRAG · Neo4j</text><rect x="534" y="166" width="140" height="150" fill="#000" opacity="0"><animate attributeName="opacity" values="0;0.26;0;0" keyTimes="0;.05;.2;1" dur="7.0s" begin="3.0s" repeatCount="indefinite"/></rect><line x1="604.0" y1="324" x2="604.0" y2="440" stroke="#000" stroke-width="1" stroke-dasharray="2 4"/><rect x="600.0" y="436" width="8" height="8" fill="#000" opacity="0"><animate attributeName="opacity" values="0;1;0;0" keyTimes="0;.05;.2;1" dur="7s" begin="3s" repeatCount="indefinite"/></rect><rect x="708" y="144" width="140" height="150" rx="0" fill="#000" stroke="#000" stroke-width="0" /><rect x="702" y="138" width="140" height="150" rx="0" fill="#000" stroke="#000" stroke-width="3" /><text x="712" y="158" font-family="'SF Mono',Menlo,Consolas,'Liberation Mono','Courier New',monospace" font-size="10" font-weight="400" fill="#fff" text-anchor="start" letter-spacing="2" >STAGE 05</text><circle cx="772" cy="188" r="6" fill="#fff" stroke="#fff" stroke-width="1" /><circle cx="754" cy="220" r="6" fill="#000" stroke="#fff" stroke-width="2.5" /><circle cx="790" cy="220" r="6" fill="#000" stroke="#fff" stroke-width="2.5" /><path d="M772 194V204M772 204H754V214M772 204H790V214" stroke="#fff" stroke-width="2.5"/><circle cx="772" cy="188" r="6" fill="none" stroke="#fff" stroke-width="2"><animate attributeName="r" values="6;20" dur="2s" begin="0s" repeatCount="indefinite" /><animate attributeName="opacity" values="1;0" dur="2s" begin="0s" repeatCount="indefinite" /></circle><text x="772.0" y="254" font-family="Impact,'Haettenschweiler','Arial Narrow Bold','Franklin Gothic Condensed','Arial Black',sans-serif" font-size="22" font-weight="400" fill="#fff" text-anchor="middle" letter-spacing="1" textLength="106" lengthAdjust="spacingAndGlyphs">REASONING</text><text x="772.0" y="274" font-family="'SF Mono',Menlo,Consolas,'Liberation Mono','Courier New',monospace" font-size="9.5" font-weight="400" fill="#fff" text-anchor="middle" letter-spacing="0" textLength="118" lengthAdjust="spacingAndGlyphs">LLMs · LangChain · LangGraph</text><rect x="702" y="138" width="140" height="150" fill="#fff" opacity="0"><animate attributeName="opacity" values="0;0.26;0;0" keyTimes="0;.05;.2;1" dur="7.0s" begin="4.0s" repeatCount="indefinite"/></rect><line x1="772.0" y1="296" x2="772.0" y2="440" stroke="#000" stroke-width="1" stroke-dasharray="2 4"/><rect x="768.0" y="436" width="8" height="8" fill="#000" opacity="0"><animate attributeName="opacity" values="0;1;0;0" keyTimes="0;.05;.2;1" dur="7s" begin="4s" repeatCount="indefinite"/></rect><rect x="876" y="116" width="140" height="150" rx="0" fill="#000" stroke="#000" stroke-width="0" /><rect x="870" y="110" width="140" height="150" rx="0" fill="#fff" stroke="#000" stroke-width="3" /><text x="880" y="130" font-family="'SF Mono',Menlo,Consolas,'Liberation Mono','Courier New',monospace" font-size="10" font-weight="400" fill="#000" text-anchor="start" letter-spacing="2" >STAGE 06</text><g><animateTransform attributeName="transform" type="translate" values="-3 0;0 0;-3 0" dur="1.6s" begin="0s" repeatCount="indefinite" /><path d="M932 158L916 176L932 194" stroke="#000" stroke-width="4"/></g><g><animateTransform attributeName="transform" type="translate" values="3 0;0 0;3 0" dur="1.6s" begin="0s" repeatCount="indefinite" /><path d="M948 158L964 176L948 194" stroke="#000" stroke-width="4"/></g><line x1="944" y1="162" x2="936" y2="190" stroke="#000" stroke-width="3" /><text x="940.0" y="226" font-family="Impact,'Haettenschweiler','Arial Narrow Bold','Franklin Gothic Condensed','Arial Black',sans-serif" font-size="22" font-weight="400" fill="#000" text-anchor="middle" letter-spacing="1" textLength="35" lengthAdjust="spacingAndGlyphs">API</text><text x="940.0" y="246" font-family="'SF Mono',Menlo,Consolas,'Liberation Mono','Courier New',monospace" font-size="9.5" font-weight="400" fill="#000" text-anchor="middle" letter-spacing="0" textLength="80" lengthAdjust="spacingAndGlyphs">FastAPI · REST</text><rect x="870" y="110" width="140" height="150" fill="#000" opacity="0"><animate attributeName="opacity" values="0;0.26;0;0" keyTimes="0;.05;.2;1" dur="7.0s" begin="5.0s" repeatCount="indefinite"/></rect><line x1="940.0" y1="268" x2="940.0" y2="440" stroke="#000" stroke-width="1" stroke-dasharray="2 4"/><rect x="936.0" y="436" width="8" height="8" fill="#000" opacity="0"><animate attributeName="opacity" values="0;1;0;0" keyTimes="0;.05;.2;1" dur="7s" begin="5s" repeatCount="indefinite"/></rect><rect x="1044" y="88" width="140" height="150" rx="0" fill="#000" stroke="#000" stroke-width="0" /><rect x="1038" y="82" width="140" height="150" rx="0" fill="#000" stroke="#000" stroke-width="3" /><text x="1048" y="102" font-family="'SF Mono',Menlo,Consolas,'Liberation Mono','Courier New',monospace" font-size="10" font-weight="400" fill="#fff" text-anchor="start" letter-spacing="2" >STAGE 07</text><g><animateTransform attributeName="transform" type="translate" values="0 0;0 -4;0 0" dur="1.8s" repeatCount="indefinite"/><path d="M1108 126L1128 137V159L1108 170L1088 159V137Z" fill="#000" stroke="#fff" stroke-width="3"/><path d="M1108 148L1128 137M1108 148L1088 137M1108 148V170" stroke="#fff" stroke-width="2"/></g><text x="1108.0" y="198" font-family="Impact,'Haettenschweiler','Arial Narrow Bold','Franklin Gothic Condensed','Arial Black',sans-serif" font-size="22" font-weight="400" fill="#fff" text-anchor="middle" letter-spacing="1" textLength="118" lengthAdjust="spacingAndGlyphs">DEPLOYMENT</text><text x="1108.0" y="218" font-family="'SF Mono',Menlo,Consolas,'Liberation Mono','Courier New',monospace" font-size="9.5" font-weight="400" fill="#fff" text-anchor="middle" letter-spacing="0" textLength="103" lengthAdjust="spacingAndGlyphs">Git · GitHub · AWS</text><rect x="1038" y="82" width="140" height="150" fill="#fff" opacity="0"><animate attributeName="opacity" values="0;0.26;0;0" keyTimes="0;.05;.2;1" dur="7.0s" begin="6.0s" repeatCount="indefinite"/></rect><line x1="1108.0" y1="240" x2="1108.0" y2="440" stroke="#000" stroke-width="1" stroke-dasharray="2 4"/><rect x="1104.0" y="436" width="8" height="8" fill="#000" opacity="0"><animate attributeName="opacity" values="0;1;0;0" keyTimes="0;.05;.2;1" dur="7s" begin="6s" repeatCount="indefinite"/></rect><path d="M176 325H184V297H198" stroke="#000" stroke-width="2.5" stroke-dasharray="7 5" marker-end="url(#ahK)"><animate attributeName="stroke-dashoffset" from="24" to="0" dur="1.6s" repeatCount="indefinite"/></path><circle r="5" fill="#000" stroke="#fff" stroke-width="1.5" opacity="0"><animateMotion dur="7s" begin="0s" repeatCount="indefinite" path="M176 325H184V297H198" keyPoints="0;0;1;1" keyTimes="0;0.030;0.150;1" calcMode="linear"/><animate attributeName="opacity" values="0;0;1;1;0;0" keyTimes="0;0.030;0.035;0.145;0.150;1" dur="7s" begin="0s" repeatCount="indefinite"/></circle><path d="M344 297H352V269H366" stroke="#000" stroke-width="2.5" stroke-dasharray="7 5" marker-end="url(#ahK)"><animate attributeName="stroke-dashoffset" from="24" to="0" dur="1.6s" repeatCount="indefinite"/></path><circle r="5" fill="#000" stroke="#fff" stroke-width="1.5" opacity="0"><animateMotion dur="7s" begin="0s" repeatCount="indefinite" path="M344 297H352V269H366" keyPoints="0;0;1;1" keyTimes="0;0.173;0.293;1" calcMode="linear"/><animate attributeName="opacity" values="0;0;1;1;0;0" keyTimes="0;0.173;0.178;0.288;0.293;1" dur="7s" begin="0s" repeatCount="indefinite"/></circle><path d="M512 269H520V241H534" stroke="#000" stroke-width="2.5" stroke-dasharray="7 5" marker-end="url(#ahK)"><animate attributeName="stroke-dashoffset" from="24" to="0" dur="1.6s" repeatCount="indefinite"/></path><circle r="5" fill="#000" stroke="#fff" stroke-width="1.5" opacity="0"><animateMotion dur="7s" begin="0s" repeatCount="indefinite" path="M512 269H520V241H534" keyPoints="0;0;1;1" keyTimes="0;0.316;0.436;1" calcMode="linear"/><animate attributeName="opacity" values="0;0;1;1;0;0" keyTimes="0;0.316;0.321;0.431;0.436;1" dur="7s" begin="0s" repeatCount="indefinite"/></circle><path d="M680 241H688V213H702" stroke="#000" stroke-width="2.5" stroke-dasharray="7 5" marker-end="url(#ahK)"><animate attributeName="stroke-dashoffset" from="24" to="0" dur="1.6s" repeatCount="indefinite"/></path><circle r="5" fill="#000" stroke="#fff" stroke-width="1.5" opacity="0"><animateMotion dur="7s" begin="0s" repeatCount="indefinite" path="M680 241H688V213H702" keyPoints="0;0;1;1" keyTimes="0;0.459;0.579;1" calcMode="linear"/><animate attributeName="opacity" values="0;0;1;1;0;0" keyTimes="0;0.459;0.464;0.574;0.579;1" dur="7s" begin="0s" repeatCount="indefinite"/></circle><path d="M848 213H856V185H870" stroke="#000" stroke-width="2.5" stroke-dasharray="7 5" marker-end="url(#ahK)"><animate attributeName="stroke-dashoffset" from="24" to="0" dur="1.6s" repeatCount="indefinite"/></path><circle r="5" fill="#000" stroke="#fff" stroke-width="1.5" opacity="0"><animateMotion dur="7s" begin="0s" repeatCount="indefinite" path="M848 213H856V185H870" keyPoints="0;0;1;1" keyTimes="0;0.601;0.721;1" calcMode="linear"/><animate attributeName="opacity" values="0;0;1;1;0;0" keyTimes="0;0.601;0.606;0.716;0.721;1" dur="7s" begin="0s" repeatCount="indefinite"/></circle><path d="M1016 185H1024V157H1038" stroke="#000" stroke-width="2.5" stroke-dasharray="7 5" marker-end="url(#ahK)"><animate attributeName="stroke-dashoffset" from="24" to="0" dur="1.6s" repeatCount="indefinite"/></path><circle r="5" fill="#000" stroke="#fff" stroke-width="1.5" opacity="0"><animateMotion dur="7s" begin="0s" repeatCount="indefinite" path="M1016 185H1024V157H1038" keyPoints="0;0;1;1" keyTimes="0;0.744;0.864;1" calcMode="linear"/><animate attributeName="opacity" values="0;0;1;1;0;0" keyTimes="0;0.744;0.749;0.859;0.864;1" dur="7s" begin="0s" repeatCount="indefinite"/></circle><line x1="30" y1="440" x2="1170" y2="440" stroke="#000" stroke-width="3" /><line x1="30" y1="440" x2="30" y2="456" stroke="#000" stroke-width="1.5" /><line x1="50" y1="440" x2="50" y2="448" stroke="#000" stroke-width="1.5" /><line x1="70" y1="440" x2="70" y2="448" stroke="#000" stroke-width="1.5" /><line x1="90" y1="440" x2="90" y2="448" stroke="#000" stroke-width="1.5" /><line x1="110" y1="440" x2="110" y2="448" stroke="#000" stroke-width="1.5" /><line x1="130" y1="440" x2="130" y2="456" stroke="#000" stroke-width="1.5" /><line x1="150" y1="440" x2="150" y2="448" stroke="#000" stroke-width="1.5" /><line x1="170" y1="440" x2="170" y2="448" stroke="#000" stroke-width="1.5" /><line x1="190" y1="440" x2="190" y2="448" stroke="#000" stroke-width="1.5" /><line x1="210" y1="440" x2="210" y2="448" stroke="#000" stroke-width="1.5" /><line x1="230" y1="440" x2="230" y2="456" stroke="#000" stroke-width="1.5" /><line x1="250" y1="440" x2="250" y2="448" stroke="#000" stroke-width="1.5" /><line x1="270" y1="440" x2="270" y2="448" stroke="#000" stroke-width="1.5" /><line x1="290" y1="440" x2="290" y2="448" stroke="#000" stroke-width="1.5" /><line x1="310" y1="440" x2="310" y2="448" stroke="#000" stroke-width="1.5" /><line x1="330" y1="440" x2="330" y2="456" stroke="#000" stroke-width="1.5" /><line x1="350" y1="440" x2="350" y2="448" stroke="#000" stroke-width="1.5" /><line x1="370" y1="440" x2="370" y2="448" stroke="#000" stroke-width="1.5" /><line x1="390" y1="440" x2="390" y2="448" stroke="#000" stroke-width="1.5" /><line x1="410" y1="440" x2="410" y2="448" stroke="#000" stroke-width="1.5" /><line x1="430" y1="440" x2="430" y2="456" stroke="#000" stroke-width="1.5" /><line x1="450" y1="440" x2="450" y2="448" stroke="#000" stroke-width="1.5" /><line x1="470" y1="440" x2="470" y2="448" stroke="#000" stroke-width="1.5" /><line x1="490" y1="440" x2="490" y2="448" stroke="#000" stroke-width="1.5" /><line x1="510" y1="440" x2="510" y2="448" stroke="#000" stroke-width="1.5" /><line x1="530" y1="440" x2="530" y2="456" stroke="#000" stroke-width="1.5" /><line x1="550" y1="440" x2="550" y2="448" stroke="#000" stroke-width="1.5" /><line x1="570" y1="440" x2="570" y2="448" stroke="#000" stroke-width="1.5" /><line x1="590" y1="440" x2="590" y2="448" stroke="#000" stroke-width="1.5" /><line x1="610" y1="440" x2="610" y2="448" stroke="#000" stroke-width="1.5" /><line x1="630" y1="440" x2="630" y2="456" stroke="#000" stroke-width="1.5" /><line x1="650" y1="440" x2="650" y2="448" stroke="#000" stroke-width="1.5" /><line x1="670" y1="440" x2="670" y2="448" stroke="#000" stroke-width="1.5" /><line x1="690" y1="440" x2="690" y2="448" stroke="#000" stroke-width="1.5" /><line x1="710" y1="440" x2="710" y2="448" stroke="#000" stroke-width="1.5" /><line x1="730" y1="440" x2="730" y2="456" stroke="#000" stroke-width="1.5" /><line x1="750" y1="440" x2="750" y2="448" stroke="#000" stroke-width="1.5" /><line x1="770" y1="440" x2="770" y2="448" stroke="#000" stroke-width="1.5" /><line x1="790" y1="440" x2="790" y2="448" stroke="#000" stroke-width="1.5" /><line x1="810" y1="440" x2="810" y2="448" stroke="#000" stroke-width="1.5" /><line x1="830" y1="440" x2="830" y2="456" stroke="#000" stroke-width="1.5" /><line x1="850" y1="440" x2="850" y2="448" stroke="#000" stroke-width="1.5" /><line x1="870" y1="440" x2="870" y2="448" stroke="#000" stroke-width="1.5" /><line x1="890" y1="440" x2="890" y2="448" stroke="#000" stroke-width="1.5" /><line x1="910" y1="440" x2="910" y2="448" stroke="#000" stroke-width="1.5" /><line x1="930" y1="440" x2="930" y2="456" stroke="#000" stroke-width="1.5" /><line x1="950" y1="440" x2="950" y2="448" stroke="#000" stroke-width="1.5" /><line x1="970" y1="440" x2="970" y2="448" stroke="#000" stroke-width="1.5" /><line x1="990" y1="440" x2="990" y2="448" stroke="#000" stroke-width="1.5" /><line x1="1010" y1="440" x2="1010" y2="448" stroke="#000" stroke-width="1.5" /><line x1="1030" y1="440" x2="1030" y2="456" stroke="#000" stroke-width="1.5" /><line x1="1050" y1="440" x2="1050" y2="448" stroke="#000" stroke-width="1.5" /><line x1="1070" y1="440" x2="1070" y2="448" stroke="#000" stroke-width="1.5" /><line x1="1090" y1="440" x2="1090" y2="448" stroke="#000" stroke-width="1.5" /><line x1="1110" y1="440" x2="1110" y2="448" stroke="#000" stroke-width="1.5" /><line x1="1130" y1="440" x2="1130" y2="456" stroke="#000" stroke-width="1.5" /><line x1="1150" y1="440" x2="1150" y2="448" stroke="#000" stroke-width="1.5" /><line x1="1170" y1="440" x2="1170" y2="448" stroke="#000" stroke-width="1.5" /><polygon points="-8,424 8,424 0,438" fill="#000"><animateTransform attributeName="transform" type="translate" values="30 0;1170 0" dur="7s" repeatCount="indefinite"/></polygon><text x="30" y="30" font-family="'SF Mono',Menlo,Consolas,'Liberation Mono','Courier New',monospace" font-size="12" font-weight="400" fill="#000" text-anchor="start" letter-spacing="3" >ENGINEERING MANUAL / SYSTEM FLOW</text><text x="1170" y="30" font-family="'SF Mono',Menlo,Consolas,'Liberation Mono','Courier New',monospace" font-size="11" font-weight="400" fill="#000" text-anchor="end" letter-spacing="2" >FIG. 02 — ABSTRACTION RISES →</text><rect x="1086" y="18" width="10" height="14" fill="#000" opacity="0"/><text x="30" y="484" font-family="'SF Mono',Menlo,Consolas,'Liberation Mono','Courier New',monospace" font-size="10" font-weight="400" fill="#777" text-anchor="start" letter-spacing="2" >raw data</text><text x="1170" y="484" font-family="'SF Mono',Menlo,Consolas,'Liberation Mono','Courier New',monospace" font-size="10" font-weight="400" fill="#777" text-anchor="end" letter-spacing="2" >deployed system</text></g><rect x="0" y="0" width="4" height="584" fill="#fff" /><rect x="4" y="0" width="5" height="584" fill="#000" /><rect x="1196" y="0" width="4" height="584" fill="#fff" /><rect x="1191" y="0" width="5" height="584" fill="#000" /><rect x="0" y="0" width="1200" height="5" fill="#000" />
</svg>