<svg xmlns="http://www.w3.org/2000/svg" width="1200" height="620" viewBox="0 0 1200 620" role="img" aria-labelledby="t d" fill="none">
<title id="t">SYSTEM STACK</title><desc id="d">Six layer technical stack: languages, AI/ML, generative AI, backend, data and engineering.</desc>
<defs><pattern id="dots" width="7" height="7" patternUnits="userSpaceOnUse"><circle cx="3.5" cy="3.5" r="1.45" fill="#000"/></pattern>
<pattern id="dotsW" width="7" height="7" patternUnits="userSpaceOnUse"><circle cx="3.5" cy="3.5" r="1.45" fill="#fff"/></pattern>
<pattern id="hatch" width="6" height="6" patternUnits="userSpaceOnUse" patternTransform="rotate(45)"><line x1="0" y1="0" x2="0" y2="6" stroke="#000" stroke-width="1.3"/></pattern>
<pattern id="hatchW" width="6" height="6" patternUnits="userSpaceOnUse" patternTransform="rotate(45)"><line x1="0" y1="0" x2="0" y2="6" stroke="#fff" stroke-width="1.3"/></pattern>
<pattern id="gridK" width="24" height="24" patternUnits="userSpaceOnUse"><path d="M24 0H0V24" stroke="#e2e2e2" stroke-width=".8"/></pattern>
<pattern id="gridW" width="24" height="24" patternUnits="userSpaceOnUse"><path d="M24 0H0V24" stroke="#2a2a2a" stroke-width=".8"/></pattern>
<linearGradient id="fadeH" x1="0" y1="0" x2="1" y2="0"><stop offset="0" stop-color="#fff"/><stop offset="1" stop-color="#000"/></linearGradient>
<linearGradient id="fadeV" x1="0" y1="0" x2="0" y2="1"><stop offset="0" stop-color="#fff"/><stop offset="1" stop-color="#000"/></linearGradient>
<radialGradient id="fadeR"><stop offset="0" stop-color="#fff"/><stop offset="1" stop-color="#000"/></radialGradient>
<mask id="mH"><rect width="100%" height="100%" fill="url(#fadeH)"/></mask>
<mask id="mV"><rect width="100%" height="100%" fill="url(#fadeV)"/></mask>
<mask id="mR" maskContentUnits="objectBoundingBox"><rect width="1" height="1" fill="url(#fadeR)"/></mask>
<marker id="ahK" viewBox="0 0 10 10" refX="9" refY="5" markerWidth="8" markerHeight="8" orient="auto"><path d="M0 0L10 5L0 10Z" fill="#000"/></marker>
<marker id="ahW" viewBox="0 0 10 10" refX="9" refY="5" markerWidth="8" markerHeight="8" orient="auto"><path d="M0 0L10 5L0 10Z" fill="#fff"/></marker></defs>
<rect x="0" y="0" width="1200" height="620" fill="#fff" /><polygon points="0,6 422,6 392,78 0,78" fill="#000"/><text x="26" y="58" font-family="Impact,'Haettenschweiler','Arial Narrow Bold','Franklin Gothic Condensed','Arial Black',sans-serif" font-size="54" font-weight="400" fill="#666" text-anchor="start" letter-spacing="0" textLength="53" lengthAdjust="spacingAndGlyphs" >03</text><text x="100" y="58" font-family="Impact,'Haettenschweiler','Arial Narrow Bold','Franklin Gothic Condensed','Arial Black',sans-serif" font-size="50" font-weight="400" fill="#fff" text-anchor="start" letter-spacing="0" textLength="276" lengthAdjust="spacingAndGlyphs" >SYSTEM STACK</text><line x1="442" y1="42" x2="1196" y2="42" stroke="#000" stroke-width="2" /><line x1="462" y1="34" x2="462" y2="50" stroke="#000" stroke-width="1.6"><animate attributeName="y1" values="34;24;34" dur="3.2s" begin="0.0s" repeatCount="indefinite" /><animate attributeName="y2" values="50;60;50" dur="3.2s" begin="0.0s" repeatCount="indefinite" /></line><line x1="502" y1="34" x2="502" y2="50" stroke="#000" stroke-width="1.6"><animate attributeName="y1" values="34;24;34" dur="3.2s" begin="0.09s" repeatCount="indefinite" /><animate attributeName="y2" values="50;60;50" dur="3.2s" begin="0.09s" repeatCount="indefinite" /></line><line x1="542" y1="34" x2="542" y2="50" stroke="#000" stroke-width="1.6"><animate attributeName="y1" values="34;24;34" dur="3.2s" begin="0.18s" repeatCount="indefinite" /><animate attributeName="y2" values="50;60;50" dur="3.2s" begin="0.18s" repeatCount="indefinite" /></line><line x1="582" y1="34" x2="582" y2="50" stroke="#000" stroke-width="1.6"><animate attributeName="y1" values="34;24;34" dur="3.2s" begin="0.27s" repeatCount="indefinite" /><animate attributeName="y2" values="50;60;50" dur="3.2s" begin="0.27s" repeatCount="indefinite" /></line><line x1="622" y1="34" x2="622" y2="50" stroke="#000" stroke-width="1.6"><animate attributeName="y1" values="34;24;34" dur="3.2s" begin="0.36s" repeatCount="indefinite" /><animate attributeName="y2" values="50;60;50" dur="3.2s" begin="0.36s" repeatCount="indefinite" /></line><line x1="662" y1="34" x2="662" y2="50" stroke="#000" stroke-width="1.6"><animate attributeName="y1" values="34;24;34" dur="3.2s" begin="0.44999999999999996s" repeatCount="indefinite" /><animate attributeName="y2" values="50;60;50" dur="3.2s" begin="0.44999999999999996s" repeatCount="indefinite" /></line><line x1="702" y1="34" x2="702" y2="50" stroke="#000" stroke-width="1.6"><animate attributeName="y1" values="34;24;34" dur="3.2s" begin="0.54s" repeatCount="indefinite" /><animate attributeName="y2" values="50;60;50" dur="3.2s" begin="0.54s" repeatCount="indefinite" /></line><line x1="742" y1="34" x2="742" y2="50" stroke="#000" stroke-width="1.6"><animate attributeName="y1" values="34;24;34" dur="3.2s" begin="0.63s" repeatCount="indefinite" /><animate attributeName="y2" values="50;60;50" dur="3.2s" begin="0.63s" repeatCount="indefinite" /></line><line x1="782" y1="34" x2="782" y2="50" stroke="#000" stroke-width="1.6"><animate attributeName="y1" values="34;24;34" dur="3.2s" begin="0.72s" repeatCount="indefinite" /><animate attributeName="y2" values="50;60;50" dur="3.2s" begin="0.72s" repeatCount="indefinite" /></line><line x1="822" y1="34" x2="822" y2="50" stroke="#000" stroke-width="1.6"><animate attributeName="y1" values="34;24;34" dur="3.2s" begin="0.8099999999999999s" repeatCount="indefinite" /><animate attributeName="y2" values="50;60;50" dur="3.2s" begin="0.8099999999999999s" repeatCount="indefinite" /></line><line x1="862" y1="34" x2="862" y2="50" stroke="#000" stroke-width="1.6"><animate attributeName="y1" values="34;24;34" dur="3.2s" begin="0.8999999999999999s" repeatCount="indefinite" /><animate attributeName="y2" values="50;60;50" dur="3.2s" begin="0.8999999999999999s" repeatCount="indefinite" /></line><line x1="902" y1="34" x2="902" y2="50" stroke="#000" stroke-width="1.6"><animate attributeName="y1" values="34;24;34" dur="3.2s" begin="0.99s" repeatCount="indefinite" /><animate attributeName="y2" values="50;60;50" dur="3.2s" begin="0.99s" repeatCount="indefinite" /></line><line x1="942" y1="34" x2="942" y2="50" stroke="#000" stroke-width="1.6"><animate attributeName="y1" values="34;24;34" dur="3.2s" begin="1.08s" repeatCount="indefinite" /><animate attributeName="y2" values="50;60;50" dur="3.2s" begin="1.08s" repeatCount="indefinite" /></line><line x1="982" y1="34" x2="982" y2="50" stroke="#000" stroke-width="1.6"><animate attributeName="y1" values="34;24;34" dur="3.2s" begin="1.17s" repeatCount="indefinite" /><animate attributeName="y2" values="50;60;50" dur="3.2s" begin="1.17s" repeatCount="indefinite" /></line><line x1="1022" y1="34" x2="1022" y2="50" stroke="#000" stroke-width="1.6"><animate attributeName="y1" values="34;24;34" dur="3.2s" begin="1.26s" repeatCount="indefinite" /><animate attributeName="y2" values="50;60;50" dur="3.2s" begin="1.26s" repeatCount="indefinite" /></line><line x1="1062" y1="34" x2="1062" y2="50" stroke="#000" stroke-width="1.6"><animate attributeName="y1" values="34;24;34" dur="3.2s" begin="1.3499999999999999s" repeatCount="indefinite" /><animate attributeName="y2" values="50;60;50" dur="3.2s" begin="1.3499999999999999s" repeatCount="indefinite" /></line><line x1="1102" y1="34" x2="1102" y2="50" stroke="#000" stroke-width="1.6"><animate attributeName="y1" values="34;24;34" dur="3.2s" begin="1.44s" repeatCount="indefinite" /><animate attributeName="y2" values="50;60;50" dur="3.2s" begin="1.44s" repeatCount="indefinite" /></line><line x1="1142" y1="34" x2="1142" y2="50" stroke="#000" stroke-width="1.6"><animate attributeName="y1" values="34;24;34" dur="3.2s" begin="1.53s" repeatCount="indefinite" /><animate attributeName="y2" values="50;60;50" dur="3.2s" begin="1.53s" repeatCount="indefinite" /></line><polygon points="-7,22 7,22 0,36" fill="#000"><animateTransform attributeName="transform" type="translate" values="452 0;1160 0;452 0" dur="7s" repeatCount="indefinite"/></polygon><rect x="894" y="12" width="282" height="22" fill="#fff" /><text x="1172" y="28" font-family="'SF Mono',Menlo,Consolas,'Liberation Mono','Courier New',monospace" font-size="11" font-weight="400" fill="#000" text-anchor="end" letter-spacing="2" >SEC. 03 / TOOLING</text><rect x="1180" y="16" width="8" height="14" fill="#000"><animate attributeName="opacity" values="1;0;1" dur="1.1s" begin="0s" repeatCount="indefinite" /></rect><clipPath id="hs"><rect x="432" y="62" width="763" height="12"/></clipPath><g clip-path="url(#hs)"><g><animateTransform attributeName="transform" type="translate" values="0 0;12 0" dur="1.2s" begin="0s" repeatCount="indefinite" /><line x1="408" y1="74" x2="420" y2="62" stroke="#000" stroke-width="1.4"/><line x1="420" y1="74" x2="432" y2="62" stroke="#000" stroke-width="1.4"/><line x1="432" y1="74" x2="444" y2="62" stroke="#000" stroke-width="1.4"/><line x1="444" y1="74" x2="456" y2="62" stroke="#000" stroke-width="1.4"/><line x1="456" y1="74" x2="468" y2="62" stroke="#000" stroke-width="1.4"/><line x1="468" y1="74" x2="480" y2="62" stroke="#000" stroke-width="1.4"/><line x1="480" y1="74" x2="492" y2="62" stroke="#000" stroke-width="1.4"/><line x1="492" y1="74" x2="504" y2="62" stroke="#000" stroke-width="1.4"/><line x1="504" y1="74" x2="516" y2="62" stroke="#000" stroke-width="1.4"/><line x1="516" y1="74" x2="528" y2="62" stroke="#000" stroke-width="1.4"/><line x1="528" y1="74" x2="540" y2="62" stroke="#000" stroke-width="1.4"/><line x1="540" y1="74" x2="552" y2="62" stroke="#000" stroke-width="1.4"/><line x1="552" y1="74" x2="564" y2="62" stroke="#000" stroke-width="1.4"/><line x1="564" y1="74" x2="576" y2="62" stroke="#000" stroke-width="1.4"/><line x1="576" y1="74" x2="588" y2="62" stroke="#000" stroke-width="1.4"/><line x1="588" y1="74" x2="600" y2="62" stroke="#000" stroke-width="1.4"/><line x1="600" y1="74" x2="612" y2="62" stroke="#000" stroke-width="1.4"/><line x1="612" y1="74" x2="624" y2="62" stroke="#000" stroke-width="1.4"/><line x1="624" y1="74" x2="636" y2="62" stroke="#000" stroke-width="1.4"/><line x1="636" y1="74" x2="648" y2="62" stroke="#000" stroke-width="1.4"/><line x1="648" y1="74" x2="660" y2="62" stroke="#000" stroke-width="1.4"/><line x1="660" y1="74" x2="672" y2="62" stroke="#000" stroke-width="1.4"/><line x1="672" y1="74" x2="684" y2="62" stroke="#000" stroke-width="1.4"/><line x1="684" y1="74" x2="696" y2="62" stroke="#000" stroke-width="1.4"/><line x1="696" y1="74" x2="708" y2="62" stroke="#000" stroke-width="1.4"/><line x1="708" y1="74" x2="720" y2="62" stroke="#000" stroke-width="1.4"/><line x1="720" y1="74" x2="732" y2="62" stroke="#000" stroke-width="1.4"/><line x1="732" y1="74" x2="744" y2="62" stroke="#000" stroke-width="1.4"/><line x1="744" y1="74" x2="756" y2="62" stroke="#000" stroke-width="1.4"/><line x1="756" y1="74" x2="768" y2="62" stroke="#000" stroke-width="1.4"/><line x1="768" y1="74" x2="780" y2="62" stroke="#000" stroke-width="1.4"/><line x1="780" y1="74" x2="792" y2="62" stroke="#000" stroke-width="1.4"/><line x1="792" y1="74" x2="804" y2="62" stroke="#000" stroke-width="1.4"/><line x1="804" y1="74" x2="816" y2="62" stroke="#000" stroke-width="1.4"/><line x1="816" y1="74" x2="828" y2="62" stroke="#000" stroke-width="1.4"/><line x1="828" y1="74" x2="840" y2="62" stroke="#000" stroke-width="1.4"/><line x1="840" y1="74" x2="852" y2="62" stroke="#000" stroke-width="1.4"/><line x1="852" y1="74" x2="864" y2="62" stroke="#000" stroke-width="1.4"/><line x1="864" y1="74" x2="876" y2="62" stroke="#000" stroke-width="1.4"/><line x1="876" y1="74" x2="888" y2="62" stroke="#000" stroke-width="1.4"/><line x1="888" y1="74" x2="900" y2="62" stroke="#000" stroke-width="1.4"/><line x1="900" y1="74" x2="912" y2="62" stroke="#000" stroke-width="1.4"/><line x1="912" y1="74" x2="924" y2="62" stroke="#000" stroke-width="1.4"/><line x1="924" y1="74" x2="936" y2="62" stroke="#000" stroke-width="1.4"/><line x1="936" y1="74" x2="948" y2="62" stroke="#000" stroke-width="1.4"/><line x1="948" y1="74" x2="960" y2="62" stroke="#000" stroke-width="1.4"/><line x1="960" y1="74" x2="972" y2="62" stroke="#000" stroke-width="1.4"/><line x1="972" y1="74" x2="984" y2="62" stroke="#000" stroke-width="1.4"/><line x1="984" y1="74" x2="996" y2="62" stroke="#000" stroke-width="1.4"/><line x1="996" y1="74" x2="1008" y2="62" stroke="#000" stroke-width="1.4"/><line x1="1008" y1="74" x2="1020" y2="62" stroke="#000" stroke-width="1.4"/><line x1="1020" y1="74" x2="1032" y2="62" stroke="#000" stroke-width="1.4"/><line x1="1032" y1="74" x2="1044" y2="62" stroke="#000" stroke-width="1.4"/><line x1="1044" y1="74" x2="1056" y2="62" stroke="#000" stroke-width="1.4"/><line x1="1056" y1="74" x2="1068" y2="62" stroke="#000" stroke-width="1.4"/><line x1="1068" y1="74" x2="1080" y2="62" stroke="#000" stroke-width="1.4"/><line x1="1080" y1="74" x2="1092" y2="62" stroke="#000" stroke-width="1.4"/><line x1="1092" y1="74" x2="1104" y2="62" stroke="#000" stroke-width="1.4"/><line x1="1104" y1="74" x2="1116" y2="62" stroke="#000" stroke-width="1.4"/><line x1="1116" y1="74" x2="1128" y2="62" stroke="#000" stroke-width="1.4"/><line x1="1128" y1="74" x2="1140" y2="62" stroke="#000" stroke-width="1.4"/><line x1="1140" y1="74" x2="1152" y2="62" stroke="#000" stroke-width="1.4"/><line x1="1152" y1="74" x2="1164" y2="62" stroke="#000" stroke-width="1.4"/><line x1="1164" y1="74" x2="1176" y2="62" stroke="#000" stroke-width="1.4"/><line x1="1176" y1="74" x2="1188" y2="62" stroke="#000" stroke-width="1.4"/><line x1="1188" y1="74" x2="1200" y2="62" stroke="#000" stroke-width="1.4"/></g></g><rect x="0" y="82" width="1200" height="4" fill="#000" /><g transform="translate(0 84)"><rect x="0" y="0" width="1200" height="536" fill="#fff" /><rect x="0" y="0" width="400" height="236" fill="#fff" /><rect x="0" y="0" width="400" height="48" fill="#000" /><text x="24" y="35" font-family="Impact,'Haettenschweiler','Arial Narrow Bold','Franklin Gothic Condensed','Arial Black',sans-serif" font-size="27" font-weight="400" fill="#fff" text-anchor="start" letter-spacing="1" textLength="128" lengthAdjust="spacingAndGlyphs">LANGUAGES</text><text x="376" y="30" font-family="'SF Mono',Menlo,Consolas,'Liberation Mono','Courier New',monospace" font-size="11" font-weight="400" fill="#fff" text-anchor="end" letter-spacing="2" >L1</text><clipPath id="cb0"><rect x="0" y="0" width="400" height="48"/></clipPath><linearGradient id="sw0" x1="0" y1="0" x2="1" y2="0"><stop offset="0" stop-color="#fff" stop-opacity="0"/><stop offset=".5" stop-color="#fff" stop-opacity=".4"/><stop offset="1" stop-color="#fff" stop-opacity="0"/></linearGradient><g clip-path="url(#cb0)"><rect y="0" width="110" height="48" fill="url(#sw0)"><animate attributeName="x" values="-130;420" dur="3.6s" begin="0.0s" repeatCount="indefinite"/></rect></g><rect x="28" y="80" width="12" height="12" fill="#000"><animate attributeName="opacity" values="1;.12;1" dur="3.6s" begin="0.0s" repeatCount="indefinite" /></rect><text x="54" y="92" font-family="'Helvetica Neue',Helvetica,Arial,sans-serif" font-size="18" font-weight="600" fill="#000" text-anchor="start" letter-spacing="0" >Python</text><rect x="28" y="116" width="12" height="12" fill="#000"><animate attributeName="opacity" values="1;.12;1" dur="3.6s" begin="0.22s" repeatCount="indefinite" /></rect><text x="54" y="128" font-family="'Helvetica Neue',Helvetica,Arial,sans-serif" font-size="18" font-weight="600" fill="#000" text-anchor="start" letter-spacing="0" >SQL</text><defs><mask id="m2" maskUnits="userSpaceOnUse" x="24" y="174" width="352" height="50"><linearGradient id="gm2" gradientUnits="userSpaceOnUse" x1="0" y1="174" x2="0" y2="224"><stop offset="0" stop-color="#000"/><stop offset="1" stop-color="#fff"/></linearGradient><rect x="24" y="174" width="352" height="50" fill="url(#gm2)"/></mask></defs><rect opacity="0.9" x="24" y="174" width="352" height="50" fill="url(#dots)" mask="url(#m2)"/><rect x="400" y="0" width="400" height="236" fill="#000" /><rect x="400" y="0" width="400" height="48" fill="#fff" /><text x="424" y="35" font-family="Impact,'Haettenschweiler','Arial Narrow Bold','Franklin Gothic Condensed','Arial Black',sans-serif" font-size="27" font-weight="400" fill="#000" text-anchor="start" letter-spacing="1" textLength="100" lengthAdjust="spacingAndGlyphs">AI / ML</text><text x="776" y="30" font-family="'SF Mono',Menlo,Consolas,'Liberation Mono','Courier New',monospace" font-size="11" font-weight="400" fill="#000" text-anchor="end" letter-spacing="2" >L2</text><clipPath id="cb1"><rect x="400" y="0" width="400" height="48"/></clipPath><linearGradient id="sw1" x1="0" y1="0" x2="1" y2="0"><stop offset="0" stop-color="#000" stop-opacity="0"/><stop offset=".5" stop-color="#000" stop-opacity=".4"/><stop offset="1" stop-color="#000" stop-opacity="0"/></linearGradient><g clip-path="url(#cb1)"><rect y="0" width="110" height="48" fill="url(#sw1)"><animate attributeName="x" values="270;820" dur="3.6s" begin="0.45s" repeatCount="indefinite"/></rect></g><rect x="428" y="80" width="12" height="12" fill="#fff"><animate attributeName="opacity" values="1;.12;1" dur="3.6s" begin="0.44s" repeatCount="indefinite" /></rect><text x="454" y="92" font-family="'Helvetica Neue',Helvetica,Arial,sans-serif" font-size="18" font-weight="600" fill="#fff" text-anchor="start" letter-spacing="0" >Machine Learning</text><rect x="428" y="116" width="12" height="12" fill="#fff"><animate attributeName="opacity" values="1;.12;1" dur="3.6s" begin="0.66s" repeatCount="indefinite" /></rect><text x="454" y="128" font-family="'Helvetica Neue',Helvetica,Arial,sans-serif" font-size="18" font-weight="600" fill="#fff" text-anchor="start" letter-spacing="0" >Deep Learning</text><rect x="618" y="80" width="12" height="12" fill="#fff"><animate attributeName="opacity" values="1;.12;1" dur="3.6s" begin="0.88s" repeatCount="indefinite" /></rect><text x="644" y="92" font-family="'Helvetica Neue',Helvetica,Arial,sans-serif" font-size="18" font-weight="600" fill="#fff" text-anchor="start" letter-spacing="0" >Computer Vision</text><rect x="618" y="116" width="12" height="12" fill="#fff"><animate attributeName="opacity" values="1;.12;1" dur="3.6s" begin="1.1s" repeatCount="indefinite" /></rect><text x="644" y="128" font-family="'Helvetica Neue',Helvetica,Arial,sans-serif" font-size="18" font-weight="600" fill="#fff" text-anchor="start" letter-spacing="0" >NLP</text><defs><mask id="m3" maskUnits="userSpaceOnUse" x="424" y="174" width="352" height="50"><linearGradient id="gm3" gradientUnits="userSpaceOnUse" x1="0" y1="174" x2="0" y2="224"><stop offset="0" stop-color="#000"/><stop offset="1" stop-color="#fff"/></linearGradient><rect x="424" y="174" width="352" height="50" fill="url(#gm3)"/></mask></defs><rect opacity="0.9" x="424" y="174" width="352" height="50" fill="url(#dotsW)" mask="url(#m3)"/><rect x="800" y="0" width="400" height="236" fill="#fff" /><rect x="800" y="0" width="400" height="48" fill="#000" /><text x="824" y="35" font-family="Impact,'Haettenschweiler','Arial Narrow Bold','Franklin Gothic Condensed','Arial Black',sans-serif" font-size="27" font-weight="400" fill="#fff" text-anchor="start" letter-spacing="1" textLength="185" lengthAdjust="spacingAndGlyphs">GENERATIVE AI</text><text x="1176" y="30" font-family="'SF Mono',Menlo,Consolas,'Liberation Mono','Courier New',monospace" font-size="11" font-weight="400" fill="#fff" text-anchor="end" letter-spacing="2" >L3</text><clipPath id="cb2"><rect x="800" y="0" width="400" height="48"/></clipPath><linearGradient id="sw2" x1="0" y1="0" x2="1" y2="0"><stop offset="0" stop-color="#fff" stop-opacity="0"/><stop offset=".5" stop-color="#fff" stop-opacity=".4"/><stop offset="1" stop-color="#fff" stop-opacity="0"/></linearGradient><g clip-path="url(#cb2)"><rect y="0" width="110" height="48" fill="url(#sw2)"><animate attributeName="x" values="670;1220" dur="3.6s" begin="0.9s" repeatCount="indefinite"/></rect></g><rect x="828" y="80" width="12" height="12" fill="#000"><animate attributeName="opacity" values="1;.12;1" dur="3.6s" begin="1.32s" repeatCount="indefinite" /></rect><text x="854" y="92" font-family="'Helvetica Neue',Helvetica,Arial,sans-serif" font-size="18" font-weight="600" fill="#000" text-anchor="start" letter-spacing="0" >LLMs</text><rect x="828" y="116" width="12" height="12" fill="#000"><animate attributeName="opacity" values="1;.12;1" dur="3.6s" begin="1.54s" repeatCount="indefinite" /></rect><text x="854" y="128" font-family="'Helvetica Neue',Helvetica,Arial,sans-serif" font-size="18" font-weight="600" fill="#000" text-anchor="start" letter-spacing="0" >RAG</text><rect x="828" y="152" width="12" height="12" fill="#000"><animate attributeName="opacity" values="1;.12;1" dur="3.6s" begin="1.76s" repeatCount="indefinite" /></rect><text x="854" y="164" font-family="'Helvetica Neue',Helvetica,Arial,sans-serif" font-size="18" font-weight="600" fill="#000" text-anchor="start" letter-spacing="0" >Agentic AI</text><rect x="1018" y="80" width="12" height="12" fill="#000"><animate attributeName="opacity" values="1;.12;1" dur="3.6s" begin="1.98s" repeatCount="indefinite" /></rect><text x="1044" y="92" font-family="'Helvetica Neue',Helvetica,Arial,sans-serif" font-size="18" font-weight="600" fill="#000" text-anchor="start" letter-spacing="0" >LangChain</text><rect x="1018" y="116" width="12" height="12" fill="#000"><animate attributeName="opacity" values="1;.12;1" dur="3.6s" begin="2.2s" repeatCount="indefinite" /></rect><text x="1044" y="128" font-family="'Helvetica Neue',Helvetica,Arial,sans-serif" font-size="18" font-weight="600" fill="#000" text-anchor="start" letter-spacing="0" >LangGraph</text><defs><mask id="m4" maskUnits="userSpaceOnUse" x="824" y="174" width="352" height="50"><linearGradient id="gm4" gradientUnits="userSpaceOnUse" x1="0" y1="174" x2="0" y2="224"><stop offset="0" stop-color="#000"/><stop offset="1" stop-color="#fff"/></linearGradient><rect x="824" y="174" width="352" height="50" fill="url(#gm4)"/></mask></defs><rect opacity="0.9" x="824" y="174" width="352" height="50" fill="url(#dots)" mask="url(#m4)"/><rect x="0" y="236" width="400" height="246" fill="#000" /><rect x="0" y="236" width="400" height="48" fill="#fff" /><text x="24" y="271" font-family="Impact,'Haettenschweiler','Arial Narrow Bold','Franklin Gothic Condensed','Arial Black',sans-serif" font-size="27" font-weight="400" fill="#000" text-anchor="start" letter-spacing="1" textLength="100" lengthAdjust="spacingAndGlyphs">BACKEND</text><text x="376" y="266" font-family="'SF Mono',Menlo,Consolas,'Liberation Mono','Courier New',monospace" font-size="11" font-weight="400" fill="#000" text-anchor="end" letter-spacing="2" >L4</text><clipPath id="cb3"><rect x="0" y="236" width="400" height="48"/></clipPath><linearGradient id="sw3" x1="0" y1="0" x2="1" y2="0"><stop offset="0" stop-color="#000" stop-opacity="0"/><stop offset=".5" stop-color="#000" stop-opacity=".4"/><stop offset="1" stop-color="#000" stop-opacity="0"/></linearGradient><g clip-path="url(#cb3)"><rect y="236" width="110" height="48" fill="url(#sw3)"><animate attributeName="x" values="-130;420" dur="3.6s" begin="1.35s" repeatCount="indefinite"/></rect></g><rect x="28" y="316" width="12" height="12" fill="#fff"><animate attributeName="opacity" values="1;.12;1" dur="3.6s" begin="2.42s" repeatCount="indefinite" /></rect><text x="54" y="328" font-family="'Helvetica Neue',Helvetica,Arial,sans-serif" font-size="18" font-weight="600" fill="#fff" text-anchor="start" letter-spacing="0" >FastAPI</text><rect x="28" y="352" width="12" height="12" fill="#fff"><animate attributeName="opacity" values="1;.12;1" dur="3.6s" begin="2.64s" repeatCount="indefinite" /></rect><text x="54" y="364" font-family="'Helvetica Neue',Helvetica,Arial,sans-serif" font-size="18" font-weight="600" fill="#fff" text-anchor="start" letter-spacing="0" >REST APIs</text><defs><mask id="m5" maskUnits="userSpaceOnUse" x="24" y="420" width="352" height="50"><linearGradient id="gm5" gradientUnits="userSpaceOnUse" x1="0" y1="420" x2="0" y2="470"><stop offset="0" stop-color="#000"/><stop offset="1" stop-color="#fff"/></linearGradient><rect x="24" y="420" width="352" height="50" fill="url(#gm5)"/></mask></defs><rect opacity="0.9" x="24" y="420" width="352" height="50" fill="url(#dotsW)" mask="url(#m5)"/><rect x="400" y="236" width="400" height="246" fill="#fff" /><rect x="400" y="236" width="400" height="48" fill="#000" /><text x="424" y="271" font-family="Impact,'Haettenschweiler','Arial Narrow Bold','Franklin Gothic Condensed','Arial Black',sans-serif" font-size="27" font-weight="400" fill="#fff" text-anchor="start" letter-spacing="1" textLength="57" lengthAdjust="spacingAndGlyphs">DATA</text><text x="776" y="266" font-family="'SF Mono',Menlo,Consolas,'Liberation Mono','Courier New',monospace" font-size="11" font-weight="400" fill="#fff" text-anchor="end" letter-spacing="2" >L5</text><clipPath id="cb4"><rect x="400" y="236" width="400" height="48"/></clipPath><linearGradient id="sw4" x1="0" y1="0" x2="1" y2="0"><stop offset="0" stop-color="#fff" stop-opacity="0"/><stop offset=".5" stop-color="#fff" stop-opacity=".4"/><stop offset="1" stop-color="#fff" stop-opacity="0"/></linearGradient><g clip-path="url(#cb4)"><rect y="236" width="110" height="48" fill="url(#sw4)"><animate attributeName="x" values="270;820" dur="3.6s" begin="1.8s" repeatCount="indefinite"/></rect></g><rect x="428" y="316" width="12" height="12" fill="#000"><animate attributeName="opacity" values="1;.12;1" dur="3.6s" begin="2.86s" repeatCount="indefinite" /></rect><text x="454" y="328" font-family="'Helvetica Neue',Helvetica,Arial,sans-serif" font-size="18" font-weight="600" fill="#000" text-anchor="start" letter-spacing="0" >Pandas</text><rect x="428" y="352" width="12" height="12" fill="#000"><animate attributeName="opacity" values="1;.12;1" dur="3.6s" begin="3.08s" repeatCount="indefinite" /></rect><text x="454" y="364" font-family="'Helvetica Neue',Helvetica,Arial,sans-serif" font-size="18" font-weight="600" fill="#000" text-anchor="start" letter-spacing="0" >NumPy</text><rect x="428" y="388" width="12" height="12" fill="#000"><animate attributeName="opacity" values="1;.12;1" dur="3.6s" begin="3.3s" repeatCount="indefinite" /></rect><text x="454" y="400" font-family="'Helvetica Neue',Helvetica,Arial,sans-serif" font-size="18" font-weight="600" fill="#000" text-anchor="start" letter-spacing="0" >Neo4j</text><defs><mask id="m6" maskUnits="userSpaceOnUse" x="424" y="420" width="352" height="50"><linearGradient id="gm6" gradientUnits="userSpaceOnUse" x1="0" y1="420" x2="0" y2="470"><stop offset="0" stop-color="#000"/><stop offset="1" stop-color="#fff"/></linearGradient><rect x="424" y="420" width="352" height="50" fill="url(#gm6)"/></mask></defs><rect opacity="0.9" x="424" y="420" width="352" height="50" fill="url(#dots)" mask="url(#m6)"/><rect x="800" y="236" width="400" height="246" fill="#000" /><rect x="800" y="236" width="400" height="48" fill="#fff" /><text x="824" y="271" font-family="Impact,'Haettenschweiler','Arial Narrow Bold','Franklin Gothic Condensed','Arial Black',sans-serif" font-size="27" font-weight="400" fill="#000" text-anchor="start" letter-spacing="1" textLength="157" lengthAdjust="spacingAndGlyphs">ENGINEERING</text><text x="1176" y="266" font-family="'SF Mono',Menlo,Consolas,'Liberation Mono','Courier New',monospace" font-size="11" font-weight="400" fill="#000" text-anchor="end" letter-spacing="2" >L6</text><clipPath id="cb5"><rect x="800" y="236" width="400" height="48"/></clipPath><linearGradient id="sw5" x1="0" y1="0" x2="1" y2="0"><stop offset="0" stop-color="#000" stop-opacity="0"/><stop offset=".5" stop-color="#000" stop-opacity=".4"/><stop offset="1" stop-color="#000" stop-opacity="0"/></linearGradient><g clip-path="url(#cb5)"><rect y="236" width="110" height="48" fill="url(#sw5)"><animate attributeName="x" values="670;1220" dur="3.6s" begin="2.25s" repeatCount="indefinite"/></rect></g><rect x="828" y="316" width="12" height="12" fill="#fff"><animate attributeName="opacity" values="1;.12;1" dur="3.6s" begin="3.52s" repeatCount="indefinite" /></rect><text x="854" y="328" font-family="'Helvetica Neue',Helvetica,Arial,sans-serif" font-size="18" font-weight="600" fill="#fff" text-anchor="start" letter-spacing="0" >Git</text><rect x="828" y="352" width="12" height="12" fill="#fff"><animate attributeName="opacity" values="1;.12;1" dur="3.6s" begin="3.74s" repeatCount="indefinite" /></rect><text x="854" y="364" font-family="'Helvetica Neue',Helvetica,Arial,sans-serif" font-size="18" font-weight="600" fill="#fff" text-anchor="start" letter-spacing="0" >GitHub</text><rect x="828" y="388" width="12" height="12" fill="#fff"><animate attributeName="opacity" values="1;.12;1" dur="3.6s" begin="3.96s" repeatCount="indefinite" /></rect><text x="854" y="400" font-family="'Helvetica Neue',Helvetica,Arial,sans-serif" font-size="18" font-weight="600" fill="#fff" text-anchor="start" letter-spacing="0" >AWS</text><defs><mask id="m7" maskUnits="userSpaceOnUse" x="824" y="420" width="352" height="50"><linearGradient id="gm7" gradientUnits="userSpaceOnUse" x1="0" y1="420" x2="0" y2="470"><stop offset="0" stop-color="#000"/><stop offset="1" stop-color="#fff"/></linearGradient><rect x="824" y="420" width="352" height="50" fill="url(#gm7)"/></mask></defs><rect opacity="0.9" x="824" y="420" width="352" height="50" fill="url(#dotsW)" mask="url(#m7)"/><rect x="397.5" y="0" width="5" height="482" fill="#000" /><rect x="797.5" y="0" width="5" height="482" fill="#000" /><rect x="0" y="233.5" width="1200" height="5" fill="#000" /><rect x="0" y="479.5" width="1200" height="5" fill="#000" /><clipPath id="mq9630"><rect x="0" y="484.5" width="1200" height="51.5"/></clipPath><rect x="0" y="484.5" width="1200" height="51.5" fill="#fff"/><g clip-path="url(#mq9630)"><g><animateTransform attributeName="transform" type="translate" values="0 0;-2930 0" dur="60s" begin="0s" repeatCount="indefinite" /><text x="0" y="520" font-family="Impact,'Haettenschweiler','Arial Narrow Bold','Franklin Gothic Condensed','Arial Black',sans-serif" font-size="26" fill="#000" textLength="2930" lengthAdjust="spacingAndGlyphs" xml:space="preserve">PYTHON  •  SQL  •  MACHINE LEARNING  •  DEEP LEARNING  •  COMPUTER VISION  •  NLP  •  LLMS  •  RAG  •  AGENTIC AI  •  LANGCHAIN  •  LANGGRAPH  •  FASTAPI  •  REST APIS  •  PANDAS  •  NUMPY  •  NEO4J  •  GIT  •  GITHUB  •  AWS  •  </text><text x="2930" y="520" font-family="Impact,'Haettenschweiler','Arial Narrow Bold','Franklin Gothic Condensed','Arial Black',sans-serif" font-size="26" fill="#000" textLength="2930" lengthAdjust="spacingAndGlyphs" xml:space="preserve">PYTHON  •  SQL  •  MACHINE LEARNING  •  DEEP LEARNING  •  COMPUTER VISION  •  NLP  •  LLMS  •  RAG  •  AGENTIC AI  •  LANGCHAIN  •  LANGGRAPH  •  FASTAPI  •  REST APIS  •  PANDAS  •  NUMPY  •  NEO4J  •  GIT  •  GITHUB  •  AWS  •  </text><text x="5860" y="520" font-family="Impact,'Haettenschweiler','Arial Narrow Bold','Franklin Gothic Condensed','Arial Black',sans-serif" font-size="26" fill="#000" textLength="2930" lengthAdjust="spacingAndGlyphs" xml:space="preserve">PYTHON  •  SQL  •  MACHINE LEARNING  •  DEEP LEARNING  •  COMPUTER VISION  •  NLP  •  LLMS  •  RAG  •  AGENTIC AI  •  LANGCHAIN  •  LANGGRAPH  •  FASTAPI  •  REST APIS  •  PANDAS  •  NUMPY  •  NEO4J  •  GIT  •  GITHUB  •  AWS  •  </text></g></g></g><rect x="0" y="0" width="4" height="620" fill="#fff" /><rect x="4" y="0" width="5" height="620" fill="#000" /><rect x="1196" y="0" width="4" height="620" fill="#fff" /><rect x="1191" y="0" width="5" height="620" fill="#000" /><rect x="0" y="0" width="1200" height="5" fill="#000" />
</svg>