<svg xmlns="http://www.w3.org/2000/svg" width="1200" height="484" viewBox="0 0 1200 484" role="img" aria-labelledby="t d" fill="none">
<title id="t">HIGHLIGHTS</title><desc id="d">Six highlight panels: SIH finalist, projects, internship, deployed products, IEEE, experimentation.</desc>
<defs><pattern id="dots" width="7" height="7" patternUnits="userSpaceOnUse"><circle cx="3.5" cy="3.5" r="1.45" fill="#000"/></pattern>
<pattern id="dotsW" width="7" height="7" patternUnits="userSpaceOnUse"><circle cx="3.5" cy="3.5" r="1.45" fill="#fff"/></pattern>
<pattern id="hatch" width="6" height="6" patternUnits="userSpaceOnUse" patternTransform="rotate(45)"><line x1="0" y1="0" x2="0" y2="6" stroke="#000" stroke-width="1.3"/></pattern>
<pattern id="hatchW" width="6" height="6" patternUnits="userSpaceOnUse" patternTransform="rotate(45)"><line x1="0" y1="0" x2="0" y2="6" stroke="#fff" stroke-width="1.3"/></pattern>
<pattern id="gridK" width="24" height="24" patternUnits="userSpaceOnUse"><path d="M24 0H0V24" stroke="#e2e2e2" stroke-width=".8"/></pattern>
<pattern id="gridW" width="24" height="24" patternUnits="userSpaceOnUse"><path d="M24 0H0V24" stroke="#2a2a2a" stroke-width=".8"/></pattern>
<linearGradient id="fadeH" x1="0" y1="0" x2="1" y2="0"><stop offset="0" stop-color="#fff"/><stop offset="1" stop-color="#000"/></linearGradient>
<linearGradient id="fadeV" x1="0" y1="0" x2="0" y2="1"><stop offset="0" stop-color="#fff"/><stop offset="1" stop-color="#000"/></linearGradient>
<radialGradient id="fadeR"><stop offset="0" stop-color="#fff"/><stop offset="1" stop-color="#000"/></radialGradient>
<mask id="mH"><rect width="100%" height="100%" fill="url(#fadeH)"/></mask>
<mask id="mV"><rect width="100%" height="100%" fill="url(#fadeV)"/></mask>
<mask id="mR" maskContentUnits="objectBoundingBox"><rect width="1" height="1" fill="url(#fadeR)"/></mask>
<marker id="ahK" viewBox="0 0 10 10" refX="9" refY="5" markerWidth="8" markerHeight="8" orient="auto"><path d="M0 0L10 5L0 10Z" fill="#000"/></marker>
<marker id="ahW" viewBox="0 0 10 10" refX="9" refY="5" markerWidth="8" markerHeight="8" orient="auto"><path d="M0 0L10 5L0 10Z" fill="#fff"/></marker></defs>
<rect x="0" y="0" width="1200" height="484" fill="#fff" /><polygon points="0,6 376,6 346,78 0,78" fill="#000"/><text x="26" y="58" font-family="Impact,'Haettenschweiler','Arial Narrow Bold','Franklin Gothic Condensed','Arial Black',sans-serif" font-size="54" font-weight="400" fill="#666" text-anchor="start" letter-spacing="0" textLength="53" lengthAdjust="spacingAndGlyphs" >06</text><text x="100" y="58" font-family="Impact,'Haettenschweiler','Arial Narrow Bold','Franklin Gothic Condensed','Arial Black',sans-serif" font-size="50" font-weight="400" fill="#fff" text-anchor="start" letter-spacing="0" textLength="230" lengthAdjust="spacingAndGlyphs" >HIGHLIGHTS</text><line x1="396" y1="42" x2="1196" y2="42" stroke="#000" stroke-width="2" /><line x1="416" y1="34" x2="416" y2="50" stroke="#000" stroke-width="1.6"><animate attributeName="y1" values="34;24;34" dur="3.2s" begin="0.0s" repeatCount="indefinite" /><animate attributeName="y2" values="50;60;50" dur="3.2s" begin="0.0s" repeatCount="indefinite" /></line><line x1="456" y1="34" x2="456" y2="50" stroke="#000" stroke-width="1.6"><animate attributeName="y1" values="34;24;34" dur="3.2s" begin="0.09s" repeatCount="indefinite" /><animate attributeName="y2" values="50;60;50" dur="3.2s" begin="0.09s" repeatCount="indefinite" /></line><line x1="496" y1="34" x2="496" y2="50" stroke="#000" stroke-width="1.6"><animate attributeName="y1" values="34;24;34" dur="3.2s" begin="0.18s" repeatCount="indefinite" /><animate attributeName="y2" values="50;60;50" dur="3.2s" begin="0.18s" repeatCount="indefinite" /></line><line x1="536" y1="34" x2="536" y2="50" stroke="#000" stroke-width="1.6"><animate attributeName="y1" values="34;24;34" dur="3.2s" begin="0.27s" repeatCount="indefinite" /><animate attributeName="y2" values="50;60;50" dur="3.2s" begin="0.27s" repeatCount="indefinite" /></line><line x1="576" y1="34" x2="576" y2="50" stroke="#000" stroke-width="1.6"><animate attributeName="y1" values="34;24;34" dur="3.2s" begin="0.36s" repeatCount="indefinite" /><animate attributeName="y2" values="50;60;50" dur="3.2s" begin="0.36s" repeatCount="indefinite" /></line><line x1="616" y1="34" x2="616" y2="50" stroke="#000" stroke-width="1.6"><animate attributeName="y1" values="34;24;34" dur="3.2s" begin="0.44999999999999996s" repeatCount="indefinite" /><animate attributeName="y2" values="50;60;50" dur="3.2s" begin="0.44999999999999996s" repeatCount="indefinite" /></line><line x1="656" y1="34" x2="656" y2="50" stroke="#000" stroke-width="1.6"><animate attributeName="y1" values="34;24;34" dur="3.2s" begin="0.54s" repeatCount="indefinite" /><animate attributeName="y2" values="50;60;50" dur="3.2s" begin="0.54s" repeatCount="indefinite" /></line><line x1="696" y1="34" x2="696" y2="50" stroke="#000" stroke-width="1.6"><animate attributeName="y1" values="34;24;34" dur="3.2s" begin="0.63s" repeatCount="indefinite" /><animate attributeName="y2" values="50;60;50" dur="3.2s" begin="0.63s" repeatCount="indefinite" /></line><line x1="736" y1="34" x2="736" y2="50" stroke="#000" stroke-width="1.6"><animate attributeName="y1" values="34;24;34" dur="3.2s" begin="0.72s" repeatCount="indefinite" /><animate attributeName="y2" values="50;60;50" dur="3.2s" begin="0.72s" repeatCount="indefinite" /></line><line x1="776" y1="34" x2="776" y2="50" stroke="#000" stroke-width="1.6"><animate attributeName="y1" values="34;24;34" dur="3.2s" begin="0.8099999999999999s" repeatCount="indefinite" /><animate attributeName="y2" values="50;60;50" dur="3.2s" begin="0.8099999999999999s" repeatCount="indefinite" /></line><line x1="816" y1="34" x2="816" y2="50" stroke="#000" stroke-width="1.6"><animate attributeName="y1" values="34;24;34" dur="3.2s" begin="0.8999999999999999s" repeatCount="indefinite" /><animate attributeName="y2" values="50;60;50" dur="3.2s" begin="0.8999999999999999s" repeatCount="indefinite" /></line><line x1="856" y1="34" x2="856" y2="50" stroke="#000" stroke-width="1.6"><animate attributeName="y1" values="34;24;34" dur="3.2s" begin="0.99s" repeatCount="indefinite" /><animate attributeName="y2" values="50;60;50" dur="3.2s" begin="0.99s" repeatCount="indefinite" /></line><line x1="896" y1="34" x2="896" y2="50" stroke="#000" stroke-width="1.6"><animate attributeName="y1" values="34;24;34" dur="3.2s" begin="1.08s" repeatCount="indefinite" /><animate attributeName="y2" values="50;60;50" dur="3.2s" begin="1.08s" repeatCount="indefinite" /></line><line x1="936" y1="34" x2="936" y2="50" stroke="#000" stroke-width="1.6"><animate attributeName="y1" values="34;24;34" dur="3.2s" begin="1.17s" repeatCount="indefinite" /><animate attributeName="y2" values="50;60;50" dur="3.2s" begin="1.17s" repeatCount="indefinite" /></line><line x1="976" y1="34" x2="976" y2="50" stroke="#000" stroke-width="1.6"><animate attributeName="y1" values="34;24;34" dur="3.2s" begin="1.26s" repeatCount="indefinite" /><animate attributeName="y2" values="50;60;50" dur="3.2s" begin="1.26s" repeatCount="indefinite" /></line><line x1="1016" y1="34" x2="1016" y2="50" stroke="#000" stroke-width="1.6"><animate attributeName="y1" values="34;24;34" dur="3.2s" begin="1.3499999999999999s" repeatCount="indefinite" /><animate attributeName="y2" values="50;60;50" dur="3.2s" begin="1.3499999999999999s" repeatCount="indefinite" /></line><line x1="1056" y1="34" x2="1056" y2="50" stroke="#000" stroke-width="1.6"><animate attributeName="y1" values="34;24;34" dur="3.2s" begin="1.44s" repeatCount="indefinite" /><animate attributeName="y2" values="50;60;50" dur="3.2s" begin="1.44s" repeatCount="indefinite" /></line><line x1="1096" y1="34" x2="1096" y2="50" stroke="#000" stroke-width="1.6"><animate attributeName="y1" values="34;24;34" dur="3.2s" begin="1.53s" repeatCount="indefinite" /><animate attributeName="y2" values="50;60;50" dur="3.2s" begin="1.53s" repeatCount="indefinite" /></line><line x1="1136" y1="34" x2="1136" y2="50" stroke="#000" stroke-width="1.6"><animate attributeName="y1" values="34;24;34" dur="3.2s" begin="1.6199999999999999s" repeatCount="indefinite" /><animate attributeName="y2" values="50;60;50" dur="3.2s" begin="1.6199999999999999s" repeatCount="indefinite" /></line><polygon points="-7,22 7,22 0,36" fill="#000"><animateTransform attributeName="transform" type="translate" values="406 0;1160 0;406 0" dur="7s" repeatCount="indefinite"/></polygon><rect x="894" y="12" width="282" height="22" fill="#fff" /><text x="1172" y="28" font-family="'SF Mono',Menlo,Consolas,'Liberation Mono','Courier New',monospace" font-size="11" font-weight="400" fill="#000" text-anchor="end" letter-spacing="2" >SEC. 06 / RECORD</text><rect x="1180" y="16" width="8" height="14" fill="#000"><animate attributeName="opacity" values="1;0;1" dur="1.1s" begin="0s" repeatCount="indefinite" /></rect><clipPath id="hs"><rect x="386" y="62" width="809" height="12"/></clipPath><g clip-path="url(#hs)"><g><animateTransform attributeName="transform" type="translate" values="0 0;12 0" dur="1.2s" begin="0s" repeatCount="indefinite" /><line x1="362" y1="74" x2="374" y2="62" stroke="#000" stroke-width="1.4"/><line x1="374" y1="74" x2="386" y2="62" stroke="#000" stroke-width="1.4"/><line x1="386" y1="74" x2="398" y2="62" stroke="#000" stroke-width="1.4"/><line x1="398" y1="74" x2="410" y2="62" stroke="#000" stroke-width="1.4"/><line x1="410" y1="74" x2="422" y2="62" stroke="#000" stroke-width="1.4"/><line x1="422" y1="74" x2="434" y2="62" stroke="#000" stroke-width="1.4"/><line x1="434" y1="74" x2="446" y2="62" stroke="#000" stroke-width="1.4"/><line x1="446" y1="74" x2="458" y2="62" stroke="#000" stroke-width="1.4"/><line x1="458" y1="74" x2="470" y2="62" stroke="#000" stroke-width="1.4"/><line x1="470" y1="74" x2="482" y2="62" stroke="#000" stroke-width="1.4"/><line x1="482" y1="74" x2="494" y2="62" stroke="#000" stroke-width="1.4"/><line x1="494" y1="74" x2="506" y2="62" stroke="#000" stroke-width="1.4"/><line x1="506" y1="74" x2="518" y2="62" stroke="#000" stroke-width="1.4"/><line x1="518" y1="74" x2="530" y2="62" stroke="#000" stroke-width="1.4"/><line x1="530" y1="74" x2="542" y2="62" stroke="#000" stroke-width="1.4"/><line x1="542" y1="74" x2="554" y2="62" stroke="#000" stroke-width="1.4"/><line x1="554" y1="74" x2="566" y2="62" stroke="#000" stroke-width="1.4"/><line x1="566" y1="74" x2="578" y2="62" stroke="#000" stroke-width="1.4"/><line x1="578" y1="74" x2="590" y2="62" stroke="#000" stroke-width="1.4"/><line x1="590" y1="74" x2="602" y2="62" stroke="#000" stroke-width="1.4"/><line x1="602" y1="74" x2="614" y2="62" stroke="#000" stroke-width="1.4"/><line x1="614" y1="74" x2="626" y2="62" stroke="#000" stroke-width="1.4"/><line x1="626" y1="74" x2="638" y2="62" stroke="#000" stroke-width="1.4"/><line x1="638" y1="74" x2="650" y2="62" stroke="#000" stroke-width="1.4"/><line x1="650" y1="74" x2="662" y2="62" stroke="#000" stroke-width="1.4"/><line x1="662" y1="74" x2="674" y2="62" stroke="#000" stroke-width="1.4"/><line x1="674" y1="74" x2="686" y2="62" stroke="#000" stroke-width="1.4"/><line x1="686" y1="74" x2="698" y2="62" stroke="#000" stroke-width="1.4"/><line x1="698" y1="74" x2="710" y2="62" stroke="#000" stroke-width="1.4"/><line x1="710" y1="74" x2="722" y2="62" stroke="#000" stroke-width="1.4"/><line x1="722" y1="74" x2="734" y2="62" stroke="#000" stroke-width="1.4"/><line x1="734" y1="74" x2="746" y2="62" stroke="#000" stroke-width="1.4"/><line x1="746" y1="74" x2="758" y2="62" stroke="#000" stroke-width="1.4"/><line x1="758" y1="74" x2="770" y2="62" stroke="#000" stroke-width="1.4"/><line x1="770" y1="74" x2="782" y2="62" stroke="#000" stroke-width="1.4"/><line x1="782" y1="74" x2="794" y2="62" stroke="#000" stroke-width="1.4"/><line x1="794" y1="74" x2="806" y2="62" stroke="#000" stroke-width="1.4"/><line x1="806" y1="74" x2="818" y2="62" stroke="#000" stroke-width="1.4"/><line x1="818" y1="74" x2="830" y2="62" stroke="#000" stroke-width="1.4"/><line x1="830" y1="74" x2="842" y2="62" stroke="#000" stroke-width="1.4"/><line x1="842" y1="74" x2="854" y2="62" stroke="#000" stroke-width="1.4"/><line x1="854" y1="74" x2="866" y2="62" stroke="#000" stroke-width="1.4"/><line x1="866" y1="74" x2="878" y2="62" stroke="#000" stroke-width="1.4"/><line x1="878" y1="74" x2="890" y2="62" stroke="#000" stroke-width="1.4"/><line x1="890" y1="74" x2="902" y2="62" stroke="#000" stroke-width="1.4"/><line x1="902" y1="74" x2="914" y2="62" stroke="#000" stroke-width="1.4"/><line x1="914" y1="74" x2="926" y2="62" stroke="#000" stroke-width="1.4"/><line x1="926" y1="74" x2="938" y2="62" stroke="#000" stroke-width="1.4"/><line x1="938" y1="74" x2="950" y2="62" stroke="#000" stroke-width="1.4"/><line x1="950" y1="74" x2="962" y2="62" stroke="#000" stroke-width="1.4"/><line x1="962" y1="74" x2="974" y2="62" stroke="#000" stroke-width="1.4"/><line x1="974" y1="74" x2="986" y2="62" stroke="#000" stroke-width="1.4"/><line x1="986" y1="74" x2="998" y2="62" stroke="#000" stroke-width="1.4"/><line x1="998" y1="74" x2="1010" y2="62" stroke="#000" stroke-width="1.4"/><line x1="1010" y1="74" x2="1022" y2="62" stroke="#000" stroke-width="1.4"/><line x1="1022" y1="74" x2="1034" y2="62" stroke="#000" stroke-width="1.4"/><line x1="1034" y1="74" x2="1046" y2="62" stroke="#000" stroke-width="1.4"/><line x1="1046" y1="74" x2="1058" y2="62" stroke="#000" stroke-width="1.4"/><line x1="1058" y1="74" x2="1070" y2="62" stroke="#000" stroke-width="1.4"/><line x1="1070" y1="74" x2="1082" y2="62" stroke="#000" stroke-width="1.4"/><line x1="1082" y1="74" x2="1094" y2="62" stroke="#000" stroke-width="1.4"/><line x1="1094" y1="74" x2="1106" y2="62" stroke="#000" stroke-width="1.4"/><line x1="1106" y1="74" x2="1118" y2="62" stroke="#000" stroke-width="1.4"/><line x1="1118" y1="74" x2="1130" y2="62" stroke="#000" stroke-width="1.4"/><line x1="1130" y1="74" x2="1142" y2="62" stroke="#000" stroke-width="1.4"/><line x1="1142" y1="74" x2="1154" y2="62" stroke="#000" stroke-width="1.4"/><line x1="1154" y1="74" x2="1166" y2="62" stroke="#000" stroke-width="1.4"/><line x1="1166" y1="74" x2="1178" y2="62" stroke="#000" stroke-width="1.4"/><line x1="1178" y1="74" x2="1190" y2="62" stroke="#000" stroke-width="1.4"/><line x1="1190" y1="74" x2="1202" y2="62" stroke="#000" stroke-width="1.4"/></g></g><rect x="0" y="82" width="1200" height="4" fill="#000" /><g transform="translate(0 84)"><rect x="0" y="0" width="1200" height="400" fill="#000" /><rect x="0" y="0" width="400" height="190" fill="#fff" /><defs><mask id="m9" maskUnits="userSpaceOnUse" x="250" y="10" width="140" height="70"><linearGradient id="gm9" gradientUnits="userSpaceOnUse" x1="250" y1="0" x2="390" y2="0"><stop offset="0" stop-color="#fff"/><stop offset="1" stop-color="#000"/></linearGradient><rect x="250" y="10" width="140" height="70" fill="url(#gm9)"/></mask></defs><rect opacity="0.5" x="250" y="10" width="140" height="70" fill="url(#dots)" mask="url(#m9)"/><text x="24" y="30" font-family="'SF Mono',Menlo,Consolas,'Liberation Mono','Courier New',monospace" font-size="10" font-weight="400" fill="#000" text-anchor="start" letter-spacing="3" >H-01</text><text x="24" y="90" font-family="Impact,'Haettenschweiler','Arial Narrow Bold','Franklin Gothic Condensed','Arial Black',sans-serif" font-size="66" font-weight="400" fill="#000" text-anchor="start" letter-spacing="0" textLength="103" lengthAdjust="spacingAndGlyphs" >SIH</text><line x1="24" y1="104" x2="370" y2="104" stroke="#000" stroke-width="2" /><rect x="24" y="101" width="46" height="6" fill="#000"><animate attributeName="x" values="24;324;24" dur="4.0s" repeatCount="indefinite"/></rect><text x="24" y="134" font-family="'Helvetica Neue',Helvetica,Arial,sans-serif" font-size="18" font-weight="700" fill="#000" text-anchor="start" letter-spacing="0" >Smart India Hackathon</text><text x="24" y="156" font-family="'Helvetica Neue',Helvetica,Arial,sans-serif" font-size="13" font-weight="400" fill="#000" text-anchor="start" letter-spacing="0" >Finalist</text><rect x="0" y="0" width="400" height="190" fill="#000" opacity="0"><animate attributeName="opacity" values="0;0.16;0;0" keyTimes="0;.05;.2;1" dur="9.0s" begin="0.0s" repeatCount="indefinite"/></rect><rect x="400" y="0" width="400" height="190" fill="#000" /><defs><mask id="m10" maskUnits="userSpaceOnUse" x="650" y="10" width="140" height="70"><linearGradient id="gm10" gradientUnits="userSpaceOnUse" x1="650" y1="0" x2="790" y2="0"><stop offset="0" stop-color="#fff"/><stop offset="1" stop-color="#000"/></linearGradient><rect x="650" y="10" width="140" height="70" fill="url(#gm10)"/></mask></defs><rect opacity="0.5" x="650" y="10" width="140" height="70" fill="url(#dotsW)" mask="url(#m10)"/><text x="424" y="30" font-family="'SF Mono',Menlo,Consolas,'Liberation Mono','Courier New',monospace" font-size="10" font-weight="400" fill="#fff" text-anchor="start" letter-spacing="3" >H-02</text><text x="424" y="90" font-family="Impact,'Haettenschweiler','Arial Narrow Bold','Franklin Gothic Condensed','Arial Black',sans-serif" font-size="66" font-weight="400" fill="#fff" text-anchor="start" letter-spacing="0" textLength="72" lengthAdjust="spacingAndGlyphs" >05</text><line x1="424" y1="104" x2="770" y2="104" stroke="#fff" stroke-width="2" /><rect x="424" y="101" width="46" height="6" fill="#fff"><animate attributeName="x" values="424;724;424" dur="4.5s" repeatCount="indefinite"/></rect><text x="424" y="134" font-family="'Helvetica Neue',Helvetica,Arial,sans-serif" font-size="18" font-weight="700" fill="#fff" text-anchor="start" letter-spacing="0" >AI / ML engineering projects</text><text x="424" y="156" font-family="'Helvetica Neue',Helvetica,Arial,sans-serif" font-size="13" font-weight="400" fill="#fff" text-anchor="start" letter-spacing="0" >Agriculture, taste, forensics, medical</text><text x="424" y="173" font-family="'Helvetica Neue',Helvetica,Arial,sans-serif" font-size="13" font-weight="400" fill="#fff" text-anchor="start" letter-spacing="0" >imaging, finance</text><rect x="400" y="0" width="400" height="190" fill="#fff" opacity="0"><animate attributeName="opacity" values="0;0.16;0;0" keyTimes="0;.05;.2;1" dur="9.0s" begin="1.5s" repeatCount="indefinite"/></rect><rect x="800" y="0" width="400" height="190" fill="#fff" /><defs><mask id="m11" maskUnits="userSpaceOnUse" x="1050" y="10" width="140" height="70"><linearGradient id="gm11" gradientUnits="userSpaceOnUse" x1="1050" y1="0" x2="1190" y2="0"><stop offset="0" stop-color="#fff"/><stop offset="1" stop-color="#000"/></linearGradient><rect x="1050" y="10" width="140" height="70" fill="url(#gm11)"/></mask></defs><rect opacity="0.5" x="1050" y="10" width="140" height="70" fill="url(#dots)" mask="url(#m11)"/><text x="824" y="30" font-family="'SF Mono',Menlo,Consolas,'Liberation Mono','Courier New',monospace" font-size="10" font-weight="400" fill="#000" text-anchor="start" letter-spacing="3" >H-03</text><text x="824" y="90" font-family="Impact,'Haettenschweiler','Arial Narrow Bold','Franklin Gothic Condensed','Arial Black',sans-serif" font-size="66" font-weight="400" fill="#000" text-anchor="start" letter-spacing="0" textLength="196" lengthAdjust="spacingAndGlyphs" >INTERN</text><line x1="824" y1="104" x2="1170" y2="104" stroke="#000" stroke-width="2" /><rect x="824" y="101" width="46" height="6" fill="#000"><animate attributeName="x" values="824;1124;824" dur="5.0s" repeatCount="indefinite"/></rect><text x="824" y="134" font-family="'Helvetica Neue',Helvetica,Arial,sans-serif" font-size="18" font-weight="700" fill="#000" text-anchor="start" letter-spacing="0" >Software development internship</text><text x="824" y="156" font-family="'Helvetica Neue',Helvetica,Arial,sans-serif" font-size="13" font-weight="400" fill="#000" text-anchor="start" letter-spacing="0" >Workmates · May–Aug 2026</text><rect x="800" y="0" width="400" height="190" fill="#000" opacity="0"><animate attributeName="opacity" values="0;0.16;0;0" keyTimes="0;.05;.2;1" dur="9.0s" begin="3.0s" repeatCount="indefinite"/></rect><rect x="0" y="190" width="500" height="210" fill="#000" /><defs><mask id="m12" maskUnits="userSpaceOnUse" x="350" y="200" width="140" height="70"><linearGradient id="gm12" gradientUnits="userSpaceOnUse" x1="350" y1="0" x2="490" y2="0"><stop offset="0" stop-color="#fff"/><stop offset="1" stop-color="#000"/></linearGradient><rect x="350" y="200" width="140" height="70" fill="url(#gm12)"/></mask></defs><rect opacity="0.5" x="350" y="200" width="140" height="70" fill="url(#dotsW)" mask="url(#m12)"/><text x="24" y="220" font-family="'SF Mono',Menlo,Consolas,'Liberation Mono','Courier New',monospace" font-size="10" font-weight="400" fill="#fff" text-anchor="start" letter-spacing="3" >H-04</text><text x="24" y="280" font-family="Impact,'Haettenschweiler','Arial Narrow Bold','Franklin Gothic Condensed','Arial Black',sans-serif" font-size="66" font-weight="400" fill="#fff" text-anchor="start" letter-spacing="0" textLength="134" lengthAdjust="spacingAndGlyphs" >LIVE</text><line x1="24" y1="294" x2="470" y2="294" stroke="#fff" stroke-width="2" /><rect x="24" y="291" width="46" height="6" fill="#fff"><animate attributeName="x" values="24;424;24" dur="5.5s" repeatCount="indefinite"/></rect><text x="24" y="324" font-family="'Helvetica Neue',Helvetica,Arial,sans-serif" font-size="18" font-weight="700" fill="#fff" text-anchor="start" letter-spacing="0" >Deployed products</text><text x="24" y="346" font-family="'Helvetica Neue',Helvetica,Arial,sans-serif" font-size="13" font-weight="400" fill="#fff" text-anchor="start" letter-spacing="0" >Two institutional websites and Find Your</text><text x="24" y="363" font-family="'Helvetica Neue',Helvetica,Arial,sans-serif" font-size="13" font-weight="400" fill="#fff" text-anchor="start" letter-spacing="0" >Niche</text><rect x="0" y="190" width="500" height="210" fill="#fff" opacity="0"><animate attributeName="opacity" values="0;0.16;0;0" keyTimes="0;.05;.2;1" dur="9.0s" begin="4.5s" repeatCount="indefinite"/></rect><rect x="500" y="190" width="340" height="210" fill="#fff" /><defs><mask id="m13" maskUnits="userSpaceOnUse" x="690" y="200" width="140" height="70"><linearGradient id="gm13" gradientUnits="userSpaceOnUse" x1="690" y1="0" x2="830" y2="0"><stop offset="0" stop-color="#fff"/><stop offset="1" stop-color="#000"/></linearGradient><rect x="690" y="200" width="140" height="70" fill="url(#gm13)"/></mask></defs><rect opacity="0.5" x="690" y="200" width="140" height="70" fill="url(#dots)" mask="url(#m13)"/><text x="524" y="220" font-family="'SF Mono',Menlo,Consolas,'Liberation Mono','Courier New',monospace" font-size="10" font-weight="400" fill="#000" text-anchor="start" letter-spacing="3" >H-05</text><text x="524" y="280" font-family="Impact,'Haettenschweiler','Arial Narrow Bold','Franklin Gothic Condensed','Arial Black',sans-serif" font-size="66" font-weight="400" fill="#000" text-anchor="start" letter-spacing="0" textLength="134" lengthAdjust="spacingAndGlyphs" >IEEE</text><line x1="524" y1="294" x2="810" y2="294" stroke="#000" stroke-width="2" /><rect x="524" y="291" width="46" height="6" fill="#000"><animate attributeName="x" values="524;764;524" dur="6.0s" repeatCount="indefinite"/></rect><text x="524" y="324" font-family="'Helvetica Neue',Helvetica,Arial,sans-serif" font-size="18" font-weight="700" fill="#000" text-anchor="start" letter-spacing="0" >Student branch team lead</text><text x="524" y="346" font-family="'Helvetica Neue',Helvetica,Arial,sans-serif" font-size="13" font-weight="400" fill="#000" text-anchor="start" letter-spacing="0" >Technical coordination</text><rect x="500" y="190" width="340" height="210" fill="#000" opacity="0"><animate attributeName="opacity" values="0;0.16;0;0" keyTimes="0;.05;.2;1" dur="9.0s" begin="6.0s" repeatCount="indefinite"/></rect><rect x="840" y="190" width="360" height="210" fill="#000" /><defs><mask id="m14" maskUnits="userSpaceOnUse" x="1050" y="200" width="140" height="70"><linearGradient id="gm14" gradientUnits="userSpaceOnUse" x1="1050" y1="0" x2="1190" y2="0"><stop offset="0" stop-color="#fff"/><stop offset="1" stop-color="#000"/></linearGradient><rect x="1050" y="200" width="140" height="70" fill="url(#gm14)"/></mask></defs><rect opacity="0.5" x="1050" y="200" width="140" height="70" fill="url(#dotsW)" mask="url(#m14)"/><text x="864" y="220" font-family="'SF Mono',Menlo,Consolas,'Liberation Mono','Courier New',monospace" font-size="10" font-weight="400" fill="#fff" text-anchor="start" letter-spacing="3" >H-06</text><text x="864" y="280" font-family="Impact,'Haettenschweiler','Arial Narrow Bold','Franklin Gothic Condensed','Arial Black',sans-serif" font-size="66" font-weight="400" fill="#fff" text-anchor="start" letter-spacing="0" textLength="258" lengthAdjust="spacingAndGlyphs" >ML·GENAI</text><line x1="864" y1="294" x2="1170" y2="294" stroke="#fff" stroke-width="2" /><rect x="864" y="291" width="46" height="6" fill="#fff"><animate attributeName="x" values="864;1124;864" dur="6.5s" repeatCount="indefinite"/></rect><text x="864" y="324" font-family="'Helvetica Neue',Helvetica,Arial,sans-serif" font-size="18" font-weight="700" fill="#fff" text-anchor="start" letter-spacing="0" >Technical experimentation</text><text x="864" y="346" font-family="'Helvetica Neue',Helvetica,Arial,sans-serif" font-size="13" font-weight="400" fill="#fff" text-anchor="start" letter-spacing="0" >ML, GenAI and AI systems</text><rect x="840" y="190" width="360" height="210" fill="#fff" opacity="0"><animate attributeName="opacity" values="0;0.16;0;0" keyTimes="0;.05;.2;1" dur="9.0s" begin="7.5s" repeatCount="indefinite"/></rect><rect x="397.5" y="0" width="5" height="190" fill="#000" /><rect x="797.5" y="0" width="5" height="190" fill="#000" /><rect x="497.5" y="190" width="5" height="210" fill="#000" /><rect x="837.5" y="190" width="5" height="210" fill="#000" /><rect x="0" y="187.5" width="1200" height="5" fill="#000" /></g><rect x="0" y="0" width="4" height="484" fill="#fff" /><rect x="4" y="0" width="5" height="484" fill="#000" /><rect x="1196" y="0" width="4" height="484" fill="#fff" /><rect x="1191" y="0" width="5" height="484" fill="#000" /><rect x="0" y="0" width="1200" height="5" fill="#000" />
</svg>